<svg width="178" height="112" viewBox="0 0 178 112" fill="none" xmlns="http://www.w3.org/2000/svg">
<path d="M0 15C0 6.71573 6.71573 0 15 0H163C171.284 0 178 6.71573 178 15V97C178 105.284 171.284 112 163 112H15C6.71572 112 0 105.284 0 97V15Z" fill="#D9D9D9"/>
<path d="M54.8984 66.5703C54.8984 68.1914 54.5957 69.5879 53.9902 70.7598C53.4043 71.9316 52.6133 72.9277 51.6172 73.748C50.6211 74.5684 49.4688 75.2422 48.1602 75.7695C46.8711 76.2773 45.5234 76.6777 44.1172 76.9707C42.7109 77.2637 41.2949 77.459 39.8691 77.5566C38.4629 77.6543 37.1445 77.7031 35.9141 77.7031C34.7031 77.7031 33.4434 77.6543 32.1348 77.5566C30.8457 77.4785 29.5566 77.332 28.2676 77.1172C26.9785 76.9023 25.709 76.6191 24.459 76.2676C23.209 75.8965 22.0273 75.4375 20.9141 74.8906L20.8555 37.1562C21.9492 36.707 23.1113 36.3066 24.3418 35.9551C25.5723 35.584 26.8223 35.2812 28.0918 35.0469C29.3809 34.793 30.6602 34.6074 31.9297 34.4902C33.1992 34.3535 34.4297 34.2852 35.6211 34.2852C37.0078 34.2852 38.4043 34.373 39.8105 34.5488C41.2363 34.7246 42.6035 35.0176 43.9121 35.4277C45.2207 35.8379 46.4414 36.375 47.5742 37.0391C48.707 37.6836 49.6934 38.4844 50.5332 39.4414C51.3926 40.3984 52.0566 41.5117 52.5254 42.7812C53.0137 44.0508 53.2578 45.5156 53.2578 47.1758C53.2578 48.2695 53.1016 49.2949 52.7891 50.252C52.4766 51.209 52.0273 52.0684 51.4414 52.8301C50.8555 53.5918 50.1426 54.2461 49.3027 54.793C48.4629 55.3203 47.5156 55.7109 46.4609 55.9648C47.7305 56.2969 48.8828 56.7852 49.918 57.4297C50.9727 58.0742 51.8613 58.8555 52.584 59.7734C53.3262 60.6914 53.8926 61.7266 54.2832 62.8789C54.6934 64.0312 54.8984 65.2617 54.8984 66.5703ZM40.0156 49.8711C40.0156 49.3047 39.8984 48.8262 39.6641 48.4355C39.4297 48.0254 39.1367 47.6934 38.7852 47.4395C38.4531 47.1855 38.082 47 37.6719 46.8828C37.2812 46.7656 36.9297 46.707 36.6172 46.707C36.2266 46.707 35.8457 46.7656 35.4746 46.8828C35.1035 47 34.7422 47.1367 34.3906 47.293L34.2148 53.7969C34.6641 53.7969 35.2207 53.7578 35.8848 53.6797C36.5488 53.6016 37.1836 53.4355 37.7891 53.1816C38.4141 52.9082 38.9414 52.5176 39.3711 52.0098C39.8008 51.4824 40.0156 50.7695 40.0156 49.8711ZM35.8555 59.4219C35.2891 59.4219 34.7422 59.4805 34.2148 59.5977L34.0977 66.2773C34.3906 66.3359 34.6738 66.3945 34.9473 66.4531C35.2402 66.4922 35.5234 66.5117 35.7969 66.5117C36.207 66.5117 36.6562 66.4727 37.1445 66.3945C37.6328 66.2969 38.0918 66.1211 38.5215 65.8672C38.9512 65.5938 39.3027 65.2324 39.5762 64.7832C39.8691 64.334 40.0156 63.7383 40.0156 62.9961C40.0156 62.2539 39.8691 61.6484 39.5762 61.1797C39.3027 60.7109 38.9609 60.3496 38.5508 60.0957C38.1406 59.8223 37.6914 59.6465 37.2031 59.5684C36.7148 59.4707 36.2656 59.4219 35.8555 59.4219Z" fill="black"/>
<path d="M93.4238 74.4805L78.8926 76.3555L77.1348 69.7344H70.4551L68.9902 76.3555L54.0488 74.8906L65.709 35.8672L81.998 35.0469L93.4238 74.4805ZM76.0801 60.7695L73.8535 50.5742L71.6855 60.7695H76.0801Z" fill="black"/>
<path d="M121.227 36.9805L120.172 49.3438C119.605 49.1875 119.049 49.0801 118.502 49.0215C117.955 48.9629 117.398 48.9336 116.832 48.9336C115.445 48.9336 114.117 49.1094 112.848 49.4609C111.598 49.8125 110.484 50.3496 109.508 51.0723C108.551 51.7949 107.779 52.7129 107.193 53.8262C106.627 54.9199 106.344 56.2188 106.344 57.7227C106.344 58.8164 106.5 59.7734 106.812 60.5938C107.145 61.3945 107.604 62.0684 108.189 62.6152C108.795 63.1426 109.518 63.543 110.357 63.8164C111.217 64.0898 112.164 64.2266 113.199 64.2266C113.922 64.2266 114.664 64.1582 115.426 64.0215C116.188 63.8652 116.949 63.6602 117.711 63.4062C118.473 63.1523 119.205 62.8594 119.908 62.5273C120.611 62.1953 121.266 61.8438 121.871 61.4727L121.402 75.2422C120.641 75.6328 119.82 75.9844 118.941 76.2969C118.062 76.5898 117.154 76.8438 116.217 77.0586C115.299 77.293 114.371 77.4688 113.434 77.5859C112.516 77.7031 111.637 77.7617 110.797 77.7617C108.023 77.7617 105.494 77.2441 103.209 76.209C100.943 75.1738 98.9902 73.7676 97.3496 71.9902C95.7285 70.1934 94.4688 68.1133 93.5703 65.75C92.6719 63.3867 92.2227 60.8672 92.2227 58.1914C92.2227 54.9883 92.6719 52 93.5703 49.2266C94.4883 46.4531 95.8262 44.0508 97.584 42.0195C99.3613 39.9688 101.549 38.3672 104.146 37.2148C106.764 36.043 109.762 35.457 113.141 35.457C114.488 35.457 115.855 35.5645 117.242 35.7793C118.629 35.9941 119.957 36.3945 121.227 36.9805Z" fill="black"/>
<path d="M160.045 39.1484L147.096 54.5586L158.99 74.7148L145.396 77.1172L136.49 65.0469L136.021 76.5312L123.834 77L124.771 35.0469L138.424 35.8086L137.369 47.8789L145.865 35.6328L160.045 39.1484Z" fill="black"/>
</svg>
