<svg width="412" height="168" viewBox="0 0 412 168" fill="none" xmlns="http://www.w3.org/2000/svg">
<path d="M0 15C0 6.71573 6.71573 0 15 0H397C405.284 0 412 6.71573 412 15V153C412 161.284 405.284 168 397 168H15C6.71573 168 0 161.284 0 153V15Z" fill="#D9D9D9"/>
<path d="M78.2842 79.4922C78.2842 82.041 78.1084 84.5898 77.7568 87.1387C72.7471 87.4609 67.7666 87.9883 62.8154 88.7207C57.8643 89.4238 52.9131 90.127 47.9619 90.8301C48.7236 92.9395 49.9102 94.624 51.5215 95.8838C53.1621 97.1436 55.1104 97.7734 57.3662 97.7734C58.5381 97.7734 59.8125 97.5537 61.1895 97.1143C62.5957 96.6748 63.9873 96.1328 65.3643 95.4883C66.7412 94.8145 68.0596 94.0967 69.3193 93.335C70.5791 92.5732 71.6631 91.8848 72.5713 91.2695L70.4619 111.221C69.3193 112.1 68.0742 112.847 66.7266 113.462C65.4082 114.077 64.0312 114.575 62.5957 114.956C61.1602 115.337 59.71 115.615 58.2451 115.791C56.7803 115.967 55.3447 116.055 53.9385 116.055C51.0381 116.055 48.3867 115.659 45.9844 114.868C43.582 114.077 41.3994 112.979 39.4365 111.572C37.5029 110.137 35.8037 108.452 34.3389 106.519C32.874 104.585 31.6582 102.476 30.6914 100.19C29.7246 97.9053 28.9922 95.4883 28.4941 92.9395C27.9961 90.3906 27.7471 87.8125 27.7471 85.2051C27.7471 82.4805 27.9961 79.7559 28.4941 77.0312C28.9922 74.3066 29.7393 71.6846 30.7354 69.165C31.7607 66.6455 33.0352 64.3164 34.5586 62.1777C36.1113 60.0098 37.9131 58.1201 39.9639 56.5088C42.0146 54.8975 44.3291 53.6377 46.9072 52.7295C49.5146 51.8213 52.3857 51.3672 55.5205 51.3672C58.1279 51.3672 60.501 51.7334 62.6396 52.4658C64.8076 53.1689 66.7266 54.165 68.3965 55.4541C70.0957 56.7139 71.5605 58.2227 72.791 59.9805C74.0508 61.7383 75.0762 63.6719 75.8672 65.7812C76.6875 67.8613 77.2881 70.0732 77.6689 72.417C78.0791 74.7314 78.2842 77.0898 78.2842 79.4922ZM60.7061 77.207C60.7061 76.3867 60.6182 75.5518 60.4424 74.7021C60.2666 73.8232 59.9736 73.0322 59.5635 72.3291C59.1826 71.626 58.6699 71.0547 58.0254 70.6152C57.3809 70.1465 56.5752 69.9121 55.6084 69.9121C54.4365 69.9121 53.3965 70.2344 52.4883 70.8789C51.6094 71.4941 50.8477 72.2852 50.2031 73.252C49.5586 74.1895 49.0312 75.2148 48.6211 76.3281C48.2109 77.4414 47.9033 78.4668 47.6982 79.4043L60.7061 78.1738V77.207Z" fill="black"/>
<path d="M135.721 92.7637C135.721 96.0742 135.677 99.3555 135.589 102.607C135.53 105.83 135.428 109.082 135.281 112.363L109.969 111.924C110.848 106.738 111.609 101.567 112.254 96.4111C112.898 91.2256 113.221 85.9961 113.221 80.7227C113.221 80.3418 113.206 79.7266 113.177 78.877C113.147 78.0273 113.089 77.0752 113.001 76.0205C112.913 74.9365 112.781 73.8379 112.605 72.7246C112.459 71.582 112.239 70.542 111.946 69.6045C111.683 68.667 111.346 67.9053 110.936 67.3193C110.555 66.7041 110.086 66.3965 109.529 66.3965C108.533 66.3965 107.684 66.6895 106.98 67.2754C106.307 67.8613 105.735 68.623 105.267 69.5605C104.827 70.4688 104.476 71.4941 104.212 72.6367C103.948 73.7793 103.743 74.9219 103.597 76.0645C103.479 77.207 103.392 78.291 103.333 79.3164C103.304 80.3125 103.289 81.1328 103.289 81.7773C103.143 86.9629 103.025 92.1191 102.938 97.2461C102.85 102.344 102.732 107.5 102.586 112.715L80.1738 113.682C80.7598 103.34 81.3164 93.0566 81.8438 82.832C82.4004 72.6074 82.8398 62.3242 83.1621 51.9824L103.904 50.9277L103.729 57.959C104.549 56.9629 105.428 56.0254 106.365 55.1465C107.332 54.2676 108.357 53.5205 109.441 52.9053C110.525 52.2607 111.668 51.7627 112.869 51.4111C114.1 51.0303 115.389 50.8398 116.736 50.8398C119.227 50.8398 121.409 51.25 123.284 52.0703C125.159 52.8906 126.771 54.0039 128.118 55.4102C129.466 56.8164 130.594 58.4863 131.502 60.4199C132.41 62.3242 133.143 64.3604 133.699 66.5283C134.256 68.6963 134.681 70.9668 134.974 73.3398C135.267 75.6836 135.457 77.998 135.545 80.2832C135.662 82.5684 135.721 84.7803 135.721 86.9189C135.721 89.0576 135.721 91.0059 135.721 92.7637Z" fill="black"/>
<path d="M189.686 80.1074C189.686 84.209 189.158 87.8857 188.104 91.1377C187.049 94.3896 185.569 97.2754 183.665 99.7949C181.79 102.285 179.549 104.409 176.941 106.167C174.334 107.925 171.478 109.375 168.372 110.518C165.267 111.631 161.956 112.451 158.44 112.979C154.954 113.506 151.365 113.77 147.674 113.77C146.297 113.77 144.949 113.74 143.631 113.682C142.312 113.594 140.965 113.477 139.588 113.33L140.818 56.1133C144.041 55.0879 147.352 54.3701 150.75 53.96C154.178 53.5205 157.576 53.3008 160.945 53.3008C165.135 53.3008 168.987 53.8867 172.503 55.0586C176.019 56.2305 179.051 57.959 181.6 60.2441C184.148 62.5 186.126 65.2979 187.532 68.6377C188.968 71.9482 189.686 75.7715 189.686 80.1074ZM159.803 96.9824C161.561 96.7188 163.157 96.1914 164.593 95.4004C166.058 94.5801 167.317 93.584 168.372 92.4121C169.427 91.2109 170.232 89.8633 170.789 88.3691C171.375 86.8457 171.668 85.2344 171.668 83.5352C171.668 81.8652 171.492 80.3125 171.141 78.877C170.789 77.4121 170.218 76.1523 169.427 75.0977C168.636 74.0137 167.596 73.1641 166.307 72.5488C165.018 71.9043 163.436 71.5527 161.561 71.4941L159.803 96.9824Z" fill="black"/>
<path d="M230.994 91.709L229.148 111.221L192.146 114.121L193.553 51.3672H216.404L213.152 91.709H230.994Z" fill="black"/>
<path d="M282.103 79.4922C282.103 82.041 281.927 84.5898 281.575 87.1387C276.565 87.4609 271.585 87.9883 266.634 88.7207C261.683 89.4238 256.731 90.127 251.78 90.8301C252.542 92.9395 253.729 94.624 255.34 95.8838C256.98 97.1436 258.929 97.7734 261.185 97.7734C262.356 97.7734 263.631 97.5537 265.008 97.1143C266.414 96.6748 267.806 96.1328 269.183 95.4883C270.56 94.8145 271.878 94.0967 273.138 93.335C274.397 92.5732 275.481 91.8848 276.39 91.2695L274.28 111.221C273.138 112.1 271.893 112.847 270.545 113.462C269.227 114.077 267.85 114.575 266.414 114.956C264.979 115.337 263.528 115.615 262.063 115.791C260.599 115.967 259.163 116.055 257.757 116.055C254.856 116.055 252.205 115.659 249.803 114.868C247.4 114.077 245.218 112.979 243.255 111.572C241.321 110.137 239.622 108.452 238.157 106.519C236.692 104.585 235.477 102.476 234.51 100.19C233.543 97.9053 232.811 95.4883 232.312 92.9395C231.814 90.3906 231.565 87.8125 231.565 85.2051C231.565 82.4805 231.814 79.7559 232.312 77.0312C232.811 74.3066 233.558 71.6846 234.554 69.165C235.579 66.6455 236.854 64.3164 238.377 62.1777C239.93 60.0098 241.731 58.1201 243.782 56.5088C245.833 54.8975 248.147 53.6377 250.726 52.7295C253.333 51.8213 256.204 51.3672 259.339 51.3672C261.946 51.3672 264.319 51.7334 266.458 52.4658C268.626 53.1689 270.545 54.165 272.215 55.4541C273.914 56.7139 275.379 58.2227 276.609 59.9805C277.869 61.7383 278.895 63.6719 279.686 65.7812C280.506 67.8613 281.106 70.0732 281.487 72.417C281.897 74.7314 282.103 77.0898 282.103 79.4922ZM264.524 77.207C264.524 76.3867 264.437 75.5518 264.261 74.7021C264.085 73.8232 263.792 73.0322 263.382 72.3291C263.001 71.626 262.488 71.0547 261.844 70.6152C261.199 70.1465 260.394 69.9121 259.427 69.9121C258.255 69.9121 257.215 70.2344 256.307 70.8789C255.428 71.4941 254.666 72.2852 254.021 73.252C253.377 74.1895 252.85 75.2148 252.439 76.3281C252.029 77.4414 251.722 78.4668 251.517 79.4043L264.524 78.1738V77.207Z" fill="black"/>
<path d="M330.047 92.5C330.047 96.5137 329.344 99.9854 327.938 102.915C326.561 105.815 324.656 108.218 322.225 110.122C319.822 111.997 316.995 113.389 313.743 114.297C310.521 115.176 307.049 115.615 303.328 115.615C301.893 115.615 300.311 115.425 298.582 115.044C296.883 114.663 295.154 114.194 293.396 113.638C291.639 113.052 289.939 112.437 288.299 111.792C286.688 111.118 285.252 110.488 283.992 109.902L285.926 92.6758C288.416 94.1699 291.17 95.3125 294.188 96.1035C297.234 96.8652 300.223 97.2461 303.152 97.2461C303.709 97.2461 304.383 97.2314 305.174 97.2021C305.965 97.1436 306.712 97.0117 307.415 96.8066C308.147 96.5723 308.763 96.2354 309.261 95.7959C309.759 95.3564 310.008 94.7266 310.008 93.9062C310.008 93.3496 309.832 92.8809 309.48 92.5C309.129 92.0898 308.675 91.7676 308.118 91.5332C307.562 91.2695 306.932 91.0791 306.229 90.9619C305.525 90.8154 304.837 90.7129 304.163 90.6543C303.489 90.5957 302.859 90.5664 302.273 90.5664C301.688 90.5664 301.219 90.5664 300.867 90.5664C298.348 90.5664 296.048 90.1709 293.968 89.3799C291.917 88.5889 290.145 87.4756 288.65 86.04C287.186 84.5752 286.043 82.8174 285.223 80.7666C284.402 78.6865 283.992 76.3867 283.992 73.8672C283.992 70.4102 284.681 67.3193 286.058 64.5947C287.464 61.8408 289.324 59.5117 291.639 57.6074C293.982 55.6738 296.663 54.1943 299.681 53.1689C302.698 52.1436 305.818 51.6309 309.041 51.6309C310.477 51.6309 311.956 51.6895 313.479 51.8066C315.003 51.8945 316.512 52.0703 318.006 52.334C319.529 52.5977 321.009 52.9346 322.444 53.3447C323.88 53.7549 325.242 54.2676 326.531 54.8828L324.861 72.7246C322.869 72.0508 320.774 71.4941 318.577 71.0547C316.409 70.5859 314.285 70.3516 312.205 70.3516C311.824 70.3516 311.326 70.3662 310.711 70.3955C310.125 70.3955 309.495 70.4395 308.821 70.5273C308.177 70.5859 307.518 70.6885 306.844 70.835C306.17 70.9814 305.569 71.1865 305.042 71.4502C304.515 71.6846 304.09 72.0068 303.768 72.417C303.445 72.8271 303.299 73.3105 303.328 73.8672C303.357 74.5117 303.592 75.0098 304.031 75.3613C304.5 75.7129 305.086 75.9766 305.789 76.1523C306.521 76.2988 307.312 76.3721 308.162 76.3721C309.041 76.3721 309.905 76.3574 310.755 76.3281C311.604 76.2695 312.396 76.2256 313.128 76.1963C313.86 76.1377 314.461 76.123 314.93 76.1523C317.273 76.2988 319.383 76.7969 321.258 77.6465C323.133 78.4961 324.715 79.624 326.004 81.0303C327.322 82.4365 328.318 84.1211 328.992 86.084C329.695 88.0176 330.047 90.1562 330.047 92.5Z" fill="black"/>
<path d="M377.508 92.5C377.508 96.5137 376.805 99.9854 375.398 102.915C374.021 105.815 372.117 108.218 369.686 110.122C367.283 111.997 364.456 113.389 361.204 114.297C357.981 115.176 354.51 115.615 350.789 115.615C349.354 115.615 347.771 115.425 346.043 115.044C344.344 114.663 342.615 114.194 340.857 113.638C339.1 113.052 337.4 112.437 335.76 111.792C334.148 111.118 332.713 110.488 331.453 109.902L333.387 92.6758C335.877 94.1699 338.631 95.3125 341.648 96.1035C344.695 96.8652 347.684 97.2461 350.613 97.2461C351.17 97.2461 351.844 97.2314 352.635 97.2021C353.426 97.1436 354.173 97.0117 354.876 96.8066C355.608 96.5723 356.224 96.2354 356.722 95.7959C357.22 95.3564 357.469 94.7266 357.469 93.9062C357.469 93.3496 357.293 92.8809 356.941 92.5C356.59 92.0898 356.136 91.7676 355.579 91.5332C355.022 91.2695 354.393 91.0791 353.689 90.9619C352.986 90.8154 352.298 90.7129 351.624 90.6543C350.95 90.5957 350.32 90.5664 349.734 90.5664C349.148 90.5664 348.68 90.5664 348.328 90.5664C345.809 90.5664 343.509 90.1709 341.429 89.3799C339.378 88.5889 337.605 87.4756 336.111 86.04C334.646 84.5752 333.504 82.8174 332.684 80.7666C331.863 78.6865 331.453 76.3867 331.453 73.8672C331.453 70.4102 332.142 67.3193 333.519 64.5947C334.925 61.8408 336.785 59.5117 339.1 57.6074C341.443 55.6738 344.124 54.1943 347.142 53.1689C350.159 52.1436 353.279 51.6309 356.502 51.6309C357.938 51.6309 359.417 51.6895 360.94 51.8066C362.464 51.8945 363.973 52.0703 365.467 52.334C366.99 52.5977 368.47 52.9346 369.905 53.3447C371.341 53.7549 372.703 54.2676 373.992 54.8828L372.322 72.7246C370.33 72.0508 368.235 71.4941 366.038 71.0547C363.87 70.5859 361.746 70.3516 359.666 70.3516C359.285 70.3516 358.787 70.3662 358.172 70.3955C357.586 70.3955 356.956 70.4395 356.282 70.5273C355.638 70.5859 354.979 70.6885 354.305 70.835C353.631 70.9814 353.03 71.1865 352.503 71.4502C351.976 71.6846 351.551 72.0068 351.229 72.417C350.906 72.8271 350.76 73.3105 350.789 73.8672C350.818 74.5117 351.053 75.0098 351.492 75.3613C351.961 75.7129 352.547 75.9766 353.25 76.1523C353.982 76.2988 354.773 76.3721 355.623 76.3721C356.502 76.3721 357.366 76.3574 358.216 76.3281C359.065 76.2695 359.856 76.2256 360.589 76.1963C361.321 76.1377 361.922 76.123 362.391 76.1523C364.734 76.2988 366.844 76.7969 368.719 77.6465C370.594 78.4961 372.176 79.624 373.465 81.0303C374.783 82.4365 375.779 84.1211 376.453 86.084C377.156 88.0176 377.508 90.1562 377.508 92.5Z" fill="black"/>
</svg>
