<svg width="816" height="94" viewBox="0 0 816 94" fill="none" xmlns="http://www.w3.org/2000/svg">
<path d="M55.25 58.875L52.625 86.625L0 90.75L2 1.5H34.5L29.875 58.875H55.25ZM127.938 41.5C127.938 45.125 127.688 48.75 127.188 52.375C120.062 52.8333 112.979 53.5833 105.938 54.625C98.8958 55.625 91.8542 56.625 84.8125 57.625C85.8958 60.625 87.5833 63.0208 89.875 64.8125C92.2083 66.6042 94.9792 67.5 98.1875 67.5C99.8542 67.5 101.667 67.1875 103.625 66.5625C105.625 65.9375 107.604 65.1667 109.562 64.25C111.521 63.2917 113.396 62.2708 115.188 61.1875C116.979 60.1042 118.521 59.125 119.812 58.25L116.812 86.625C115.188 87.875 113.417 88.9375 111.5 89.8125C109.625 90.6875 107.667 91.3958 105.625 91.9375C103.583 92.4792 101.521 92.875 99.4375 93.125C97.3542 93.375 95.3125 93.5 93.3125 93.5C89.1875 93.5 85.4167 92.9375 82 91.8125C78.5833 90.6875 75.4792 89.125 72.6875 87.125C69.9375 85.0833 67.5208 82.6875 65.4375 79.9375C63.3542 77.1875 61.625 74.1875 60.25 70.9375C58.875 67.6875 57.8333 64.25 57.125 60.625C56.4167 57 56.0625 53.3333 56.0625 49.625C56.0625 45.75 56.4167 41.875 57.125 38C57.8333 34.125 58.8958 30.3958 60.3125 26.8125C61.7708 23.2292 63.5833 19.9167 65.75 16.875C67.9583 13.7917 70.5208 11.1042 73.4375 8.8125C76.3542 6.52083 79.6458 4.72917 83.3125 3.4375C87.0208 2.14583 91.1042 1.5 95.5625 1.5C99.2708 1.5 102.646 2.02083 105.688 3.0625C108.771 4.0625 111.5 5.47917 113.875 7.3125C116.292 9.10417 118.375 11.25 120.125 13.75C121.917 16.25 123.375 19 124.5 22C125.667 24.9583 126.521 28.1042 127.062 31.4375C127.646 34.7292 127.938 38.0833 127.938 41.5ZM102.938 38.25C102.938 37.0833 102.812 35.8958 102.562 34.6875C102.312 33.4375 101.896 32.3125 101.312 31.3125C100.771 30.3125 100.042 29.5 99.125 28.875C98.2083 28.2083 97.0625 27.875 95.6875 27.875C94.0208 27.875 92.5417 28.3333 91.25 29.25C90 30.125 88.9167 31.25 88 32.625C87.0833 33.9583 86.3333 35.4167 85.75 37C85.1667 38.5833 84.7292 40.0417 84.4375 41.375L102.938 39.625V38.25ZM207.375 86.625L176.375 90.625L172.625 76.5H158.375L155.25 90.625L123.375 87.5L148.25 4.25L183 2.5L207.375 86.625ZM170.375 57.375L165.625 35.625L161 57.375H170.375ZM279.5 42.375C279.5 48.2083 278.75 53.4375 277.25 58.0625C275.75 62.6875 273.646 66.7917 270.938 70.375C268.271 73.9167 265.083 76.9375 261.375 79.4375C257.667 81.9375 253.604 84 249.188 85.625C244.771 87.2083 240.062 88.375 235.062 89.125C230.104 89.875 225 90.25 219.75 90.25C217.792 90.25 215.875 90.2083 214 90.125C212.125 90 210.208 89.8333 208.25 89.625L210 8.25C214.583 6.79167 219.292 5.77083 224.125 5.1875C229 4.5625 233.833 4.25 238.625 4.25C244.583 4.25 250.062 5.08333 255.062 6.75C260.062 8.41667 264.375 10.875 268 14.125C271.625 17.3333 274.438 21.3125 276.438 26.0625C278.479 30.7708 279.5 36.2083 279.5 42.375ZM237 66.375C239.5 66 241.771 65.25 243.812 64.125C245.896 62.9583 247.688 61.5417 249.188 59.875C250.688 58.1667 251.833 56.25 252.625 54.125C253.458 51.9583 253.875 49.6667 253.875 47.25C253.875 44.875 253.625 42.6667 253.125 40.625C252.625 38.5417 251.812 36.75 250.688 35.25C249.562 33.7083 248.083 32.5 246.25 31.625C244.417 30.7083 242.167 30.2083 239.5 30.125L237 66.375ZM353.188 41.5C353.188 45.125 352.938 48.75 352.438 52.375C345.312 52.8333 338.229 53.5833 331.188 54.625C324.146 55.625 317.104 56.625 310.062 57.625C311.146 60.625 312.833 63.0208 315.125 64.8125C317.458 66.6042 320.229 67.5 323.438 67.5C325.104 67.5 326.917 67.1875 328.875 66.5625C330.875 65.9375 332.854 65.1667 334.812 64.25C336.771 63.2917 338.646 62.2708 340.438 61.1875C342.229 60.1042 343.771 59.125 345.062 58.25L342.062 86.625C340.438 87.875 338.667 88.9375 336.75 89.8125C334.875 90.6875 332.917 91.3958 330.875 91.9375C328.833 92.4792 326.771 92.875 324.688 93.125C322.604 93.375 320.562 93.5 318.562 93.5C314.438 93.5 310.667 92.9375 307.25 91.8125C303.833 90.6875 300.729 89.125 297.938 87.125C295.188 85.0833 292.771 82.6875 290.688 79.9375C288.604 77.1875 286.875 74.1875 285.5 70.9375C284.125 67.6875 283.083 64.25 282.375 60.625C281.667 57 281.312 53.3333 281.312 49.625C281.312 45.75 281.667 41.875 282.375 38C283.083 34.125 284.146 30.3958 285.562 26.8125C287.021 23.2292 288.833 19.9167 291 16.875C293.208 13.7917 295.771 11.1042 298.688 8.8125C301.604 6.52083 304.896 4.72917 308.562 3.4375C312.271 2.14583 316.354 1.5 320.812 1.5C324.521 1.5 327.896 2.02083 330.938 3.0625C334.021 4.0625 336.75 5.47917 339.125 7.3125C341.542 9.10417 343.625 11.25 345.375 13.75C347.167 16.25 348.625 19 349.75 22C350.917 24.9583 351.771 28.1042 352.312 31.4375C352.896 34.7292 353.188 38.0833 353.188 41.5ZM328.188 38.25C328.188 37.0833 328.062 35.8958 327.812 34.6875C327.562 33.4375 327.146 32.3125 326.562 31.3125C326.021 30.3125 325.292 29.5 324.375 28.875C323.458 28.2083 322.312 27.875 320.938 27.875C319.271 27.875 317.792 28.3333 316.5 29.25C315.25 30.125 314.167 31.25 313.25 32.625C312.333 33.9583 311.583 35.4167 311 37C310.417 38.5833 309.979 40.0417 309.688 41.375L328.188 39.625V38.25ZM430.562 31.75C430.562 35 430.271 37.9583 429.688 40.625C429.146 43.25 428.271 45.6667 427.062 47.875C425.854 50.0833 424.292 52.125 422.375 54C420.458 55.875 418.146 57.6667 415.438 59.375L430.312 85.875L402.188 91.375L392.562 64.75L384.812 65L383.688 91H356.812C357.021 81.5 357.208 72.0417 357.375 62.625C357.583 53.2083 357.812 43.75 358.062 34.25C358.146 29.4583 358.229 24.7083 358.312 20C358.396 15.2917 358.562 10.5417 358.812 5.75C361.729 4.66667 364.604 3.77083 367.438 3.0625C370.271 2.35417 373.104 1.8125 375.938 1.4375C378.812 1.02083 381.708 0.75 384.625 0.625C387.583 0.458333 390.604 0.375 393.688 0.375C398.438 0.375 403.021 1.04167 407.438 2.375C411.896 3.66667 415.833 5.625 419.25 8.25C422.667 10.875 425.396 14.1458 427.438 18.0625C429.521 21.9792 430.562 26.5417 430.562 31.75ZM402.562 33.75C402.562 32 402.312 30.3958 401.812 28.9375C401.354 27.4792 400.646 26.2292 399.688 25.1875C398.771 24.1042 397.604 23.2708 396.188 22.6875C394.812 22.0625 393.188 21.75 391.312 21.75C390.479 21.75 389.667 21.8125 388.875 21.9375C388.083 22.0208 387.312 22.1667 386.562 22.375L385.562 45.625H387.062C388.854 45.625 390.667 45.3958 392.5 44.9375C394.375 44.4792 396.042 43.7708 397.5 42.8125C399 41.8542 400.208 40.625 401.125 39.125C402.083 37.625 402.562 35.8333 402.562 33.75ZM507.688 69.75C507.688 73.2083 507.042 76.1875 505.75 78.6875C504.5 81.1875 502.812 83.3125 500.688 85.0625C498.562 86.8125 496.104 88.25 493.312 89.375C490.562 90.4583 487.688 91.3125 484.688 91.9375C481.688 92.5625 478.667 92.9792 475.625 93.1875C472.625 93.3958 469.812 93.5 467.188 93.5C464.604 93.5 461.917 93.3958 459.125 93.1875C456.375 93.0208 453.625 92.7083 450.875 92.25C448.125 91.7917 445.417 91.1875 442.75 90.4375C440.083 89.6458 437.562 88.6667 435.188 87.5L435.062 7C437.396 6.04167 439.875 5.1875 442.5 4.4375C445.125 3.64583 447.792 3 450.5 2.5C453.25 1.95833 455.979 1.5625 458.688 1.3125C461.396 1.02083 464.021 0.875 466.562 0.875C469.521 0.875 472.5 1.0625 475.5 1.4375C478.542 1.8125 481.458 2.4375 484.25 3.3125C487.042 4.1875 489.646 5.33333 492.062 6.75C494.479 8.125 496.583 9.83333 498.375 11.875C500.208 13.9167 501.625 16.2917 502.625 19C503.667 21.7083 504.188 24.8333 504.188 28.375C504.188 30.7083 503.854 32.8958 503.188 34.9375C502.521 36.9792 501.562 38.8125 500.312 40.4375C499.062 42.0625 497.542 43.4583 495.75 44.625C493.958 45.75 491.938 46.5833 489.688 47.125C492.396 47.8333 494.854 48.875 497.062 50.25C499.312 51.625 501.208 53.2917 502.75 55.25C504.333 57.2083 505.542 59.4167 506.375 61.875C507.25 64.3333 507.688 66.9583 507.688 69.75ZM475.938 34.125C475.938 32.9167 475.688 31.8958 475.188 31.0625C474.688 30.1875 474.062 29.4792 473.312 28.9375C472.604 28.3958 471.812 28 470.938 27.75C470.104 27.5 469.354 27.375 468.688 27.375C467.854 27.375 467.042 27.5 466.25 27.75C465.458 28 464.688 28.2917 463.938 28.625L463.562 42.5C464.521 42.5 465.708 42.4167 467.125 42.25C468.542 42.0833 469.896 41.7292 471.188 41.1875C472.521 40.6042 473.646 39.7708 474.562 38.6875C475.479 37.5625 475.938 36.0417 475.938 34.125ZM467.062 54.5C465.854 54.5 464.688 54.625 463.562 54.875L463.312 69.125C463.938 69.25 464.542 69.375 465.125 69.5C465.75 69.5833 466.354 69.625 466.938 69.625C467.812 69.625 468.771 69.5417 469.812 69.375C470.854 69.1667 471.833 68.7917 472.75 68.25C473.667 67.6667 474.417 66.8958 475 65.9375C475.625 64.9792 475.938 63.7083 475.938 62.125C475.938 60.5417 475.625 59.25 475 58.25C474.417 57.25 473.688 56.4792 472.812 55.9375C471.938 55.3542 470.979 54.9792 469.938 54.8125C468.896 54.6042 467.938 54.5 467.062 54.5ZM586.812 44.125C586.812 47.9167 586.375 51.5833 585.5 55.125C584.625 58.625 583.354 61.9167 581.688 65C580.062 68.0833 578.062 70.9167 575.688 73.5C573.354 76.0417 570.708 78.2292 567.75 80.0625C564.833 81.8958 561.646 83.3333 558.188 84.375C554.729 85.375 551.062 85.875 547.188 85.875C543.438 85.875 539.854 85.3958 536.438 84.4375C533.062 83.4792 529.896 82.1458 526.938 80.4375C523.979 78.6875 521.292 76.6042 518.875 74.1875C516.5 71.7292 514.458 69.0208 512.75 66.0625C511.083 63.0625 509.771 59.8542 508.812 56.4375C507.896 53.0208 507.438 49.4583 507.438 45.75C507.438 42.125 507.875 38.5833 508.75 35.125C509.625 31.625 510.875 28.3333 512.5 25.25C514.167 22.1667 516.167 19.3333 518.5 16.75C520.833 14.1667 523.438 11.9375 526.312 10.0625C529.229 8.1875 532.375 6.72917 535.75 5.6875C539.125 4.64583 542.688 4.125 546.438 4.125C552.479 4.125 557.979 5.0625 562.938 6.9375C567.938 8.8125 572.188 11.5 575.688 15C579.229 18.4583 581.958 22.6667 583.875 27.625C585.833 32.5417 586.812 38.0417 586.812 44.125ZM559.062 45.75C559.062 43.9583 558.792 42.2292 558.25 40.5625C557.75 38.8542 557 37.3542 556 36.0625C555 34.7292 553.75 33.6667 552.25 32.875C550.792 32.0417 549.104 31.625 547.188 31.625C545.229 31.625 543.479 31.9792 541.938 32.6875C540.396 33.3958 539.062 34.375 537.938 35.625C536.854 36.8333 536.021 38.2708 535.438 39.9375C534.854 41.5625 534.562 43.2917 534.562 45.125C534.562 46.875 534.812 48.625 535.312 50.375C535.812 52.125 536.562 53.7083 537.562 55.125C538.562 56.5417 539.792 57.6875 541.25 58.5625C542.75 59.4375 544.479 59.875 546.438 59.875C548.396 59.875 550.146 59.5 551.688 58.75C553.271 57.9583 554.604 56.9167 555.688 55.625C556.771 54.2917 557.604 52.7708 558.188 51.0625C558.771 49.3542 559.062 47.5833 559.062 45.75ZM666.25 86.625L635.25 90.625L631.5 76.5H617.25L614.125 90.625L582.25 87.5L607.125 4.25L641.875 2.5L666.25 86.625ZM629.25 57.375L624.5 35.625L619.875 57.375H629.25ZM740.812 31.75C740.812 35 740.521 37.9583 739.938 40.625C739.396 43.25 738.521 45.6667 737.312 47.875C736.104 50.0833 734.542 52.125 732.625 54C730.708 55.875 728.396 57.6667 725.688 59.375L740.562 85.875L712.438 91.375L702.812 64.75L695.062 65L693.938 91H667.062C667.271 81.5 667.458 72.0417 667.625 62.625C667.833 53.2083 668.062 43.75 668.312 34.25C668.396 29.4583 668.479 24.7083 668.562 20C668.646 15.2917 668.812 10.5417 669.062 5.75C671.979 4.66667 674.854 3.77083 677.688 3.0625C680.521 2.35417 683.354 1.8125 686.188 1.4375C689.062 1.02083 691.958 0.75 694.875 0.625C697.833 0.458333 700.854 0.375 703.938 0.375C708.688 0.375 713.271 1.04167 717.688 2.375C722.146 3.66667 726.083 5.625 729.5 8.25C732.917 10.875 735.646 14.1458 737.688 18.0625C739.771 21.9792 740.812 26.5417 740.812 31.75ZM712.812 33.75C712.812 32 712.562 30.3958 712.062 28.9375C711.604 27.4792 710.896 26.2292 709.938 25.1875C709.021 24.1042 707.854 23.2708 706.438 22.6875C705.062 22.0625 703.438 21.75 701.562 21.75C700.729 21.75 699.917 21.8125 699.125 21.9375C698.333 22.0208 697.562 22.1667 696.812 22.375L695.812 45.625H697.312C699.104 45.625 700.917 45.3958 702.75 44.9375C704.625 44.4792 706.292 43.7708 707.75 42.8125C709.25 41.8542 710.458 40.625 711.375 39.125C712.333 37.625 712.812 35.8333 712.812 33.75ZM816 42.375C816 48.2083 815.25 53.4375 813.75 58.0625C812.25 62.6875 810.146 66.7917 807.438 70.375C804.771 73.9167 801.583 76.9375 797.875 79.4375C794.167 81.9375 790.104 84 785.688 85.625C781.271 87.2083 776.562 88.375 771.562 89.125C766.604 89.875 761.5 90.25 756.25 90.25C754.292 90.25 752.375 90.2083 750.5 90.125C748.625 90 746.708 89.8333 744.75 89.625L746.5 8.25C751.083 6.79167 755.792 5.77083 760.625 5.1875C765.5 4.5625 770.333 4.25 775.125 4.25C781.083 4.25 786.562 5.08333 791.562 6.75C796.562 8.41667 800.875 10.875 804.5 14.125C808.125 17.3333 810.938 21.3125 812.938 26.0625C814.979 30.7708 816 36.2083 816 42.375ZM773.5 66.375C776 66 778.271 65.25 780.312 64.125C782.396 62.9583 784.188 61.5417 785.688 59.875C787.188 58.1667 788.333 56.25 789.125 54.125C789.958 51.9583 790.375 49.6667 790.375 47.25C790.375 44.875 790.125 42.6667 789.625 40.625C789.125 38.5417 788.312 36.75 787.188 35.25C786.062 33.7083 784.583 32.5 782.75 31.625C780.917 30.7083 778.667 30.2083 776 30.125L773.5 66.375Z" fill="black"/>
</svg>
