<svg width="324" height="112" viewBox="0 0 324 112" fill="none" xmlns="http://www.w3.org/2000/svg">
<path d="M0 15C0 6.71573 6.71573 0 15 0H309C317.284 0 324 6.71573 324 15V97C324 105.284 317.284 112 309 112H15C6.71573 112 0 105.284 0 97V15Z" fill="#D9D9D9"/>
<path d="M54.125 63.6484L53.3047 72.3203L36.8594 73.6094L37.4844 45.7188H47.6406L46.1953 63.6484H54.125Z" fill="black"/>
<path d="M76.8398 58.2188C76.8398 59.3516 76.7617 60.4844 76.6055 61.6172C74.3789 61.7604 72.1654 61.9948 69.9648 62.3203C67.7643 62.6328 65.5638 62.9453 63.3633 63.2578C63.7018 64.1953 64.2292 64.944 64.9453 65.5039C65.6745 66.0638 66.5404 66.3438 67.543 66.3438C68.0638 66.3438 68.6302 66.2461 69.2422 66.0508C69.8672 65.8555 70.4857 65.6146 71.0977 65.3281C71.7096 65.0286 72.2956 64.7096 72.8555 64.3711C73.4154 64.0326 73.8971 63.7266 74.3008 63.4531L73.3633 72.3203C72.8555 72.7109 72.3021 73.043 71.7031 73.3164C71.1172 73.5898 70.5052 73.8112 69.8672 73.9805C69.2292 74.1497 68.5846 74.2734 67.9336 74.3516C67.2826 74.4297 66.6445 74.4688 66.0195 74.4688C64.7305 74.4688 63.5521 74.293 62.4844 73.9414C61.4167 73.5898 60.4466 73.1016 59.5742 72.4766C58.7148 71.8385 57.9596 71.0898 57.3086 70.2305C56.6576 69.3711 56.1172 68.4336 55.6875 67.418C55.2578 66.4023 54.9323 65.3281 54.7109 64.1953C54.4896 63.0625 54.3789 61.9167 54.3789 60.7578C54.3789 59.5469 54.4896 58.3359 54.7109 57.125C54.9323 55.9141 55.2643 54.7487 55.707 53.6289C56.1628 52.5091 56.7292 51.474 57.4062 50.5234C58.0964 49.5599 58.8971 48.7201 59.8086 48.0039C60.7201 47.2878 61.7487 46.7279 62.8945 46.3242C64.0534 45.9206 65.3294 45.7188 66.7227 45.7188C67.8815 45.7188 68.9362 45.8815 69.8867 46.207C70.8503 46.5195 71.7031 46.9622 72.4453 47.5352C73.2005 48.0951 73.8516 48.7656 74.3984 49.5469C74.9583 50.3281 75.4141 51.1875 75.7656 52.125C76.1302 53.0495 76.3971 54.0326 76.5664 55.0742C76.7487 56.1029 76.8398 57.151 76.8398 58.2188ZM69.0273 57.2031C69.0273 56.8385 68.9883 56.4674 68.9102 56.0898C68.832 55.6992 68.7018 55.3477 68.5195 55.0352C68.3503 54.7227 68.1224 54.4688 67.8359 54.2734C67.5495 54.0651 67.1914 53.9609 66.7617 53.9609C66.2409 53.9609 65.7786 54.1042 65.375 54.3906C64.9844 54.6641 64.6458 55.0156 64.3594 55.4453C64.0729 55.862 63.8385 56.3177 63.6562 56.8125C63.474 57.3073 63.3372 57.763 63.2461 58.1797L69.0273 57.6328V57.2031Z" fill="black"/>
<path d="M101.664 72.3203L91.9766 73.5703L90.8047 69.1562H86.3516L85.375 73.5703L75.4141 72.5938L83.1875 46.5781L94.0469 46.0312L101.664 72.3203ZM90.1016 63.1797L88.6172 56.3828L87.1719 63.1797H90.1016Z" fill="black"/>
<path d="M124.203 58.4922C124.203 60.3151 123.969 61.9492 123.5 63.3945C123.031 64.8398 122.374 66.1224 121.527 67.2422C120.694 68.349 119.698 69.293 118.539 70.0742C117.38 70.8555 116.111 71.5 114.73 72.0078C113.35 72.5026 111.879 72.8672 110.316 73.1016C108.767 73.3359 107.172 73.4531 105.531 73.4531C104.919 73.4531 104.32 73.4401 103.734 73.4141C103.148 73.375 102.549 73.3229 101.938 73.2578L102.484 47.8281C103.917 47.3724 105.388 47.0534 106.898 46.8711C108.422 46.6758 109.932 46.5781 111.43 46.5781C113.292 46.5781 115.004 46.8385 116.566 47.3594C118.129 47.8802 119.477 48.6484 120.609 49.6641C121.742 50.6667 122.621 51.9102 123.246 53.3945C123.884 54.8659 124.203 56.5651 124.203 58.4922ZM110.922 65.9922C111.703 65.875 112.413 65.6406 113.051 65.2891C113.702 64.9245 114.262 64.4818 114.73 63.9609C115.199 63.4271 115.557 62.8281 115.805 62.1641C116.065 61.487 116.195 60.7708 116.195 60.0156C116.195 59.2734 116.117 58.5833 115.961 57.9453C115.805 57.2943 115.551 56.7344 115.199 56.2656C114.848 55.7839 114.385 55.4062 113.812 55.1328C113.24 54.8464 112.536 54.6901 111.703 54.6641L110.922 65.9922Z" fill="black"/>
<path d="M147.23 58.2188C147.23 59.3516 147.152 60.4844 146.996 61.6172C144.77 61.7604 142.556 61.9948 140.355 62.3203C138.155 62.6328 135.954 62.9453 133.754 63.2578C134.092 64.1953 134.62 64.944 135.336 65.5039C136.065 66.0638 136.931 66.3438 137.934 66.3438C138.454 66.3438 139.021 66.2461 139.633 66.0508C140.258 65.8555 140.876 65.6146 141.488 65.3281C142.1 65.0286 142.686 64.7096 143.246 64.3711C143.806 64.0326 144.288 63.7266 144.691 63.4531L143.754 72.3203C143.246 72.7109 142.693 73.043 142.094 73.3164C141.508 73.5898 140.896 73.8112 140.258 73.9805C139.62 74.1497 138.975 74.2734 138.324 74.3516C137.673 74.4297 137.035 74.4688 136.41 74.4688C135.121 74.4688 133.943 74.293 132.875 73.9414C131.807 73.5898 130.837 73.1016 129.965 72.4766C129.105 71.8385 128.35 71.0898 127.699 70.2305C127.048 69.3711 126.508 68.4336 126.078 67.418C125.648 66.4023 125.323 65.3281 125.102 64.1953C124.88 63.0625 124.77 61.9167 124.77 60.7578C124.77 59.5469 124.88 58.3359 125.102 57.125C125.323 55.9141 125.655 54.7487 126.098 53.6289C126.553 52.5091 127.12 51.474 127.797 50.5234C128.487 49.5599 129.288 48.7201 130.199 48.0039C131.111 47.2878 132.139 46.7279 133.285 46.3242C134.444 45.9206 135.72 45.7188 137.113 45.7188C138.272 45.7188 139.327 45.8815 140.277 46.207C141.241 46.5195 142.094 46.9622 142.836 47.5352C143.591 48.0951 144.242 48.7656 144.789 49.5469C145.349 50.3281 145.805 51.1875 146.156 52.125C146.521 53.0495 146.788 54.0326 146.957 55.0742C147.139 56.1029 147.23 57.151 147.23 58.2188ZM139.418 57.2031C139.418 56.8385 139.379 56.4674 139.301 56.0898C139.223 55.6992 139.092 55.3477 138.91 55.0352C138.741 54.7227 138.513 54.4688 138.227 54.2734C137.94 54.0651 137.582 53.9609 137.152 53.9609C136.632 53.9609 136.169 54.1042 135.766 54.3906C135.375 54.6641 135.036 55.0156 134.75 55.4453C134.464 55.862 134.229 56.3177 134.047 56.8125C133.865 57.3073 133.728 57.763 133.637 58.1797L139.418 57.6328V57.2031Z" fill="black"/>
<path d="M171.41 55.1719C171.41 56.1875 171.319 57.112 171.137 57.9453C170.967 58.7656 170.694 59.5208 170.316 60.2109C169.939 60.901 169.451 61.5391 168.852 62.125C168.253 62.7109 167.53 63.2708 166.684 63.8047L171.332 72.0859L162.543 73.8047L159.535 65.4844L157.113 65.5625L156.762 73.6875H148.363C148.428 70.7188 148.487 67.763 148.539 64.8203C148.604 61.8776 148.676 58.9219 148.754 55.9531C148.78 54.4557 148.806 52.9714 148.832 51.5C148.858 50.0286 148.91 48.5443 148.988 47.0469C149.9 46.7083 150.798 46.4284 151.684 46.207C152.569 45.9857 153.454 45.8164 154.34 45.6992C155.238 45.569 156.143 45.4844 157.055 45.4453C157.979 45.3932 158.923 45.3672 159.887 45.3672C161.371 45.3672 162.803 45.5755 164.184 45.9922C165.577 46.3958 166.807 47.0078 167.875 47.8281C168.943 48.6484 169.796 49.6706 170.434 50.8945C171.085 52.1185 171.41 53.5443 171.41 55.1719ZM162.66 55.7969C162.66 55.25 162.582 54.7487 162.426 54.293C162.283 53.8372 162.061 53.4466 161.762 53.1211C161.475 52.7826 161.111 52.5221 160.668 52.3398C160.238 52.1445 159.73 52.0469 159.145 52.0469C158.884 52.0469 158.63 52.0664 158.383 52.1055C158.135 52.1315 157.895 52.1771 157.66 52.2422L157.348 59.5078H157.816C158.376 59.5078 158.943 59.4362 159.516 59.293C160.102 59.1497 160.622 58.9284 161.078 58.6289C161.547 58.3294 161.924 57.9453 162.211 57.4766C162.51 57.0078 162.66 56.4479 162.66 55.7969Z" fill="black"/>
<path d="M195.512 67.0469C195.512 68.1276 195.31 69.0586 194.906 69.8398C194.516 70.6211 193.988 71.2852 193.324 71.832C192.66 72.3789 191.892 72.8281 191.02 73.1797C190.16 73.5182 189.262 73.7852 188.324 73.9805C187.387 74.1758 186.443 74.306 185.492 74.3711C184.555 74.4362 183.676 74.4688 182.855 74.4688C182.048 74.4688 181.208 74.4362 180.336 74.3711C179.477 74.319 178.617 74.2214 177.758 74.0781C176.898 73.9349 176.052 73.7461 175.219 73.5117C174.385 73.2643 173.598 72.9583 172.855 72.5938L172.816 47.4375C173.546 47.138 174.32 46.8711 175.141 46.6367C175.961 46.3893 176.794 46.1875 177.641 46.0312C178.5 45.862 179.353 45.7383 180.199 45.6602C181.046 45.569 181.866 45.5234 182.66 45.5234C183.585 45.5234 184.516 45.582 185.453 45.6992C186.404 45.8164 187.315 46.0117 188.188 46.2852C189.06 46.5586 189.874 46.9167 190.629 47.3594C191.384 47.7891 192.042 48.3229 192.602 48.9609C193.174 49.599 193.617 50.3411 193.93 51.1875C194.255 52.0339 194.418 53.0104 194.418 54.1172C194.418 54.8464 194.314 55.5299 194.105 56.168C193.897 56.806 193.598 57.3789 193.207 57.8867C192.816 58.3945 192.341 58.8307 191.781 59.1953C191.221 59.5469 190.59 59.8073 189.887 59.9766C190.733 60.1979 191.501 60.5234 192.191 60.9531C192.895 61.3828 193.487 61.9036 193.969 62.5156C194.464 63.1276 194.841 63.8177 195.102 64.5859C195.375 65.3542 195.512 66.1745 195.512 67.0469ZM185.59 55.9141C185.59 55.5365 185.512 55.2174 185.355 54.957C185.199 54.6836 185.004 54.4622 184.77 54.293C184.548 54.1237 184.301 54 184.027 53.9219C183.767 53.8438 183.533 53.8047 183.324 53.8047C183.064 53.8047 182.81 53.8438 182.562 53.9219C182.315 54 182.074 54.0911 181.84 54.1953L181.723 58.5312C182.022 58.5312 182.393 58.5052 182.836 58.4531C183.279 58.401 183.702 58.2904 184.105 58.1211C184.522 57.9388 184.874 57.6784 185.16 57.3398C185.447 56.9883 185.59 56.513 185.59 55.9141ZM182.816 62.2812C182.439 62.2812 182.074 62.3203 181.723 62.3984L181.645 66.8516C181.84 66.8906 182.029 66.9297 182.211 66.9688C182.406 66.9948 182.595 67.0078 182.777 67.0078C183.051 67.0078 183.35 66.9818 183.676 66.9297C184.001 66.8646 184.307 66.7474 184.594 66.5781C184.88 66.3958 185.115 66.1549 185.297 65.8555C185.492 65.556 185.59 65.1589 185.59 64.6641C185.59 64.1693 185.492 63.7656 185.297 63.4531C185.115 63.1406 184.887 62.8997 184.613 62.7305C184.34 62.5482 184.04 62.431 183.715 62.3789C183.389 62.3138 183.09 62.2812 182.816 62.2812Z" fill="black"/>
<path d="M220.238 59.0391C220.238 60.224 220.102 61.3698 219.828 62.4766C219.555 63.5703 219.158 64.599 218.637 65.5625C218.129 66.526 217.504 67.4115 216.762 68.2188C216.033 69.013 215.206 69.6966 214.281 70.2695C213.37 70.8424 212.374 71.2917 211.293 71.6172C210.212 71.9297 209.066 72.0859 207.855 72.0859C206.684 72.0859 205.564 71.9362 204.496 71.6367C203.441 71.3372 202.452 70.9206 201.527 70.3867C200.603 69.8398 199.763 69.1888 199.008 68.4336C198.266 67.6654 197.628 66.819 197.094 65.8945C196.573 64.957 196.163 63.9544 195.863 62.8867C195.577 61.819 195.434 60.7057 195.434 59.5469C195.434 58.4141 195.57 57.3073 195.844 56.2266C196.117 55.1328 196.508 54.1042 197.016 53.1406C197.536 52.1771 198.161 51.2917 198.891 50.4844C199.62 49.6771 200.434 48.9805 201.332 48.3945C202.243 47.8086 203.227 47.3529 204.281 47.0273C205.336 46.7018 206.449 46.5391 207.621 46.5391C209.509 46.5391 211.228 46.832 212.777 47.418C214.34 48.0039 215.668 48.8438 216.762 49.9375C217.868 51.0182 218.721 52.3333 219.32 53.8828C219.932 55.4193 220.238 57.138 220.238 59.0391ZM211.566 59.5469C211.566 58.987 211.482 58.4466 211.312 57.9258C211.156 57.3919 210.922 56.9232 210.609 56.5195C210.297 56.1029 209.906 55.7708 209.438 55.5234C208.982 55.263 208.454 55.1328 207.855 55.1328C207.243 55.1328 206.697 55.2435 206.215 55.4648C205.733 55.6862 205.316 55.9922 204.965 56.3828C204.626 56.7604 204.366 57.2096 204.184 57.7305C204.001 58.2383 203.91 58.7786 203.91 59.3516C203.91 59.8984 203.988 60.4453 204.145 60.9922C204.301 61.5391 204.535 62.0339 204.848 62.4766C205.16 62.9193 205.544 63.2773 206 63.5508C206.469 63.8242 207.009 63.9609 207.621 63.9609C208.233 63.9609 208.78 63.8438 209.262 63.6094C209.757 63.362 210.173 63.0365 210.512 62.6328C210.85 62.2161 211.111 61.7409 211.293 61.207C211.475 60.6732 211.566 60.1198 211.566 59.5469Z" fill="black"/>
<path d="M245.062 72.3203L235.375 73.5703L234.203 69.1562H229.75L228.773 73.5703L218.812 72.5938L226.586 46.5781L237.445 46.0312L245.062 72.3203ZM233.5 63.1797L232.016 56.3828L230.57 63.1797H233.5Z" fill="black"/>
<path d="M268.363 55.1719C268.363 56.1875 268.272 57.112 268.09 57.9453C267.921 58.7656 267.647 59.5208 267.27 60.2109C266.892 60.901 266.404 61.5391 265.805 62.125C265.206 62.7109 264.483 63.2708 263.637 63.8047L268.285 72.0859L259.496 73.8047L256.488 65.4844L254.066 65.5625L253.715 73.6875H245.316C245.382 70.7188 245.44 67.763 245.492 64.8203C245.557 61.8776 245.629 58.9219 245.707 55.9531C245.733 54.4557 245.759 52.9714 245.785 51.5C245.811 50.0286 245.863 48.5443 245.941 47.0469C246.853 46.7083 247.751 46.4284 248.637 46.207C249.522 45.9857 250.408 45.8164 251.293 45.6992C252.191 45.569 253.096 45.4844 254.008 45.4453C254.932 45.3932 255.876 45.3672 256.84 45.3672C258.324 45.3672 259.757 45.5755 261.137 45.9922C262.53 46.3958 263.76 47.0078 264.828 47.8281C265.896 48.6484 266.749 49.6706 267.387 50.8945C268.038 52.1185 268.363 53.5443 268.363 55.1719ZM259.613 55.7969C259.613 55.25 259.535 54.7487 259.379 54.293C259.236 53.8372 259.014 53.4466 258.715 53.1211C258.428 52.7826 258.064 52.5221 257.621 52.3398C257.191 52.1445 256.684 52.0469 256.098 52.0469C255.837 52.0469 255.583 52.0664 255.336 52.1055C255.089 52.1315 254.848 52.1771 254.613 52.2422L254.301 59.5078H254.77C255.329 59.5078 255.896 59.4362 256.469 59.293C257.055 59.1497 257.576 58.9284 258.031 58.6289C258.5 58.3294 258.878 57.9453 259.164 57.4766C259.464 57.0078 259.613 56.4479 259.613 55.7969Z" fill="black"/>
<path d="M291.859 58.4922C291.859 60.3151 291.625 61.9492 291.156 63.3945C290.688 64.8398 290.03 66.1224 289.184 67.2422C288.35 68.349 287.354 69.293 286.195 70.0742C285.036 70.8555 283.767 71.5 282.387 72.0078C281.007 72.5026 279.535 72.8672 277.973 73.1016C276.423 73.3359 274.828 73.4531 273.188 73.4531C272.576 73.4531 271.977 73.4401 271.391 73.4141C270.805 73.375 270.206 73.3229 269.594 73.2578L270.141 47.8281C271.573 47.3724 273.044 47.0534 274.555 46.8711C276.078 46.6758 277.589 46.5781 279.086 46.5781C280.948 46.5781 282.66 46.8385 284.223 47.3594C285.785 47.8802 287.133 48.6484 288.266 49.6641C289.398 50.6667 290.277 51.9102 290.902 53.3945C291.54 54.8659 291.859 56.5651 291.859 58.4922ZM278.578 65.9922C279.359 65.875 280.069 65.6406 280.707 65.2891C281.358 64.9245 281.918 64.4818 282.387 63.9609C282.855 63.4271 283.214 62.8281 283.461 62.1641C283.721 61.487 283.852 60.7708 283.852 60.0156C283.852 59.2734 283.773 58.5833 283.617 57.9453C283.461 57.2943 283.207 56.7344 282.855 56.2656C282.504 55.7839 282.042 55.4062 281.469 55.1328C280.896 54.8464 280.193 54.6901 279.359 54.6641L278.578 65.9922Z" fill="black"/>
</svg>
