<svg width="965" height="635" viewBox="0 0 965 635" fill="none" xmlns="http://www.w3.org/2000/svg">
<path d="M0 10C0 4.47715 4.47715 0 10 0H955C960.523 0 965 4.47715 965 10V625C965 630.523 960.523 635 955 635H9.99999C4.47714 635 0 630.523 0 625V10Z" fill="#D9D9D9"/>
<path d="M372.607 301.301L371.377 314.309L346.709 316.242C346.826 309.426 346.953 302.648 347.09 295.91C347.246 289.172 347.432 282.395 347.646 275.578H362.881C362.432 279.855 362.002 284.133 361.592 288.41C361.182 292.668 360.889 296.965 360.713 301.301C361.631 301.34 362.539 301.359 363.438 301.359C364.336 301.359 365.244 301.359 366.162 301.359C367.256 301.359 368.33 301.35 369.385 301.33C370.439 301.311 371.514 301.301 372.607 301.301Z" fill="black"/>
<path d="M410.195 297.316C410.195 299.094 409.99 300.812 409.58 302.473C409.17 304.113 408.574 305.656 407.793 307.102C407.031 308.547 406.094 309.875 404.98 311.086C403.887 312.277 402.646 313.303 401.26 314.162C399.893 315.021 398.398 315.695 396.777 316.184C395.156 316.652 393.438 316.887 391.621 316.887C389.863 316.887 388.184 316.662 386.582 316.213C385 315.764 383.516 315.139 382.129 314.338C380.742 313.518 379.482 312.541 378.35 311.408C377.236 310.256 376.279 308.986 375.479 307.6C374.697 306.193 374.082 304.689 373.633 303.088C373.203 301.486 372.988 299.816 372.988 298.078C372.988 296.379 373.193 294.719 373.604 293.098C374.014 291.457 374.6 289.914 375.361 288.469C376.143 287.023 377.08 285.695 378.174 284.484C379.268 283.273 380.488 282.229 381.836 281.35C383.203 280.471 384.678 279.787 386.26 279.299C387.842 278.811 389.512 278.566 391.27 278.566C394.102 278.566 396.68 279.006 399.004 279.885C401.348 280.764 403.34 282.023 404.98 283.664C406.641 285.285 407.92 287.258 408.818 289.582C409.736 291.887 410.195 294.465 410.195 297.316ZM397.188 298.078C397.188 297.238 397.061 296.428 396.807 295.646C396.572 294.846 396.221 294.143 395.752 293.537C395.283 292.912 394.697 292.414 393.994 292.043C393.311 291.652 392.52 291.457 391.621 291.457C390.703 291.457 389.883 291.623 389.16 291.955C388.438 292.287 387.812 292.746 387.285 293.332C386.777 293.898 386.387 294.572 386.113 295.354C385.84 296.115 385.703 296.926 385.703 297.785C385.703 298.605 385.82 299.426 386.055 300.246C386.289 301.066 386.641 301.809 387.109 302.473C387.578 303.137 388.154 303.674 388.838 304.084C389.541 304.494 390.352 304.699 391.27 304.699C392.188 304.699 393.008 304.523 393.73 304.172C394.473 303.801 395.098 303.312 395.605 302.707C396.113 302.082 396.504 301.369 396.777 300.568C397.051 299.768 397.188 298.938 397.188 298.078Z" fill="black"/>
<path d="M447.9 315.48L433.369 317.355L431.611 310.734H424.932L423.467 317.355L408.525 315.891L420.186 276.867L436.475 276.047L447.9 315.48ZM430.557 301.77L428.33 291.574L426.162 301.77H430.557Z" fill="black"/>
<path d="M481.709 294.738C481.709 297.473 481.357 299.943 480.654 302.15C479.951 304.338 478.965 306.291 477.695 308.01C476.445 309.709 474.951 311.174 473.213 312.404C471.475 313.635 469.57 314.65 467.5 315.451C465.43 316.232 463.223 316.818 460.879 317.209C458.555 317.58 456.162 317.766 453.701 317.766C452.783 317.766 451.885 317.746 451.006 317.707C450.127 317.648 449.229 317.57 448.311 317.473L449.131 278.156C451.279 277.473 453.486 276.994 455.752 276.721C458.037 276.428 460.303 276.281 462.549 276.281C465.342 276.281 467.91 276.701 470.254 277.541C472.598 278.381 474.619 279.592 476.318 281.174C478.018 282.756 479.336 284.689 480.273 286.975C481.23 289.26 481.709 291.848 481.709 294.738ZM469.697 296.613C469.717 295.559 469.6 294.543 469.346 293.566C469.111 292.59 468.711 291.73 468.145 290.988C467.598 290.227 466.895 289.621 466.035 289.172C465.176 288.703 464.15 288.449 462.959 288.41L461.787 306.574C462.959 306.398 464.023 306.018 464.98 305.432C465.938 304.826 466.758 304.094 467.441 303.234C468.145 302.355 468.682 301.389 469.053 300.334C469.443 299.26 469.658 298.156 469.697 297.023V296.613Z" fill="black"/>
<path d="M499.316 276.75L496.094 316.652L483.73 317.297V277.57L499.316 276.75Z" fill="black"/>
<path d="M541.211 275.988L539.102 315.715L523.75 317.121L515.547 295.852L514.258 317.531H501.074L502.129 275.988L516.777 275.285L526.914 296.379L527.383 276.457L541.211 275.988Z" fill="black"/>
<path d="M578.975 312.023C578.057 313.176 576.924 314.182 575.576 315.041C574.229 315.9 572.783 316.613 571.24 317.18C569.697 317.746 568.115 318.166 566.494 318.439C564.873 318.732 563.33 318.879 561.865 318.879C559.033 318.879 556.426 318.371 554.043 317.355C551.66 316.34 549.6 314.943 547.861 313.166C546.143 311.369 544.795 309.26 543.818 306.838C542.842 304.416 542.354 301.809 542.354 299.016C542.354 296.887 542.598 294.807 543.086 292.775C543.574 290.725 544.268 288.801 545.166 287.004C546.084 285.188 547.197 283.527 548.506 282.023C549.814 280.5 551.299 279.191 552.959 278.098C554.619 277.004 556.436 276.154 558.408 275.549C560.381 274.943 562.49 274.641 564.736 274.641C565.576 274.641 566.475 274.68 567.432 274.758C568.389 274.816 569.336 274.934 570.273 275.109C571.23 275.266 572.158 275.49 573.057 275.783C573.955 276.076 574.775 276.438 575.518 276.867L574.697 288.059C573.604 287.648 572.471 287.375 571.299 287.238C570.146 287.082 569.014 287.004 567.9 287.004C566.338 287.004 564.873 287.248 563.506 287.736C562.158 288.205 560.977 288.889 559.961 289.787C558.965 290.686 558.174 291.779 557.588 293.068C557.002 294.357 556.709 295.812 556.709 297.434C556.709 298.449 556.846 299.436 557.119 300.393C557.393 301.33 557.803 302.17 558.35 302.912C558.916 303.635 559.609 304.221 560.43 304.67C561.27 305.119 562.236 305.344 563.33 305.344C564.072 305.344 564.834 305.246 565.615 305.051C566.416 304.855 567.1 304.523 567.666 304.055L567.783 301.77L560.752 301.652L561.104 292.863C564.014 292.766 566.924 292.688 569.834 292.629C572.744 292.551 575.674 292.453 578.623 292.336L578.975 312.023Z" fill="black"/>
<path d="M592.568 311.965C592.568 312.824 592.402 313.625 592.07 314.367C591.738 315.109 591.289 315.764 590.723 316.33C590.176 316.877 589.531 317.316 588.789 317.648C588.047 317.961 587.256 318.117 586.416 318.117C585.557 318.117 584.756 317.961 584.014 317.648C583.271 317.316 582.617 316.877 582.051 316.33C581.504 315.764 581.064 315.109 580.732 314.367C580.42 313.625 580.264 312.824 580.264 311.965C580.264 311.125 580.42 310.324 580.732 309.562C581.064 308.801 581.504 308.146 582.051 307.6C582.617 307.033 583.271 306.584 584.014 306.252C584.756 305.92 585.557 305.754 586.416 305.754C587.256 305.754 588.047 305.92 588.789 306.252C589.531 306.584 590.176 307.033 590.723 307.6C591.289 308.146 591.738 308.801 592.07 309.562C592.402 310.324 592.568 311.125 592.568 311.965Z" fill="black"/>
<path d="M605.869 311.965C605.869 312.824 605.703 313.625 605.371 314.367C605.039 315.109 604.59 315.764 604.023 316.33C603.477 316.877 602.832 317.316 602.09 317.648C601.348 317.961 600.557 318.117 599.717 318.117C598.857 318.117 598.057 317.961 597.314 317.648C596.572 317.316 595.918 316.877 595.352 316.33C594.805 315.764 594.365 315.109 594.033 314.367C593.721 313.625 593.564 312.824 593.564 311.965C593.564 311.125 593.721 310.324 594.033 309.562C594.365 308.801 594.805 308.146 595.352 307.6C595.918 307.033 596.572 306.584 597.314 306.252C598.057 305.92 598.857 305.754 599.717 305.754C600.557 305.754 601.348 305.92 602.09 306.252C602.832 306.584 603.477 307.033 604.023 307.6C604.59 308.146 605.039 308.801 605.371 309.562C605.703 310.324 605.869 311.125 605.869 311.965Z" fill="black"/>
<path d="M619.17 311.965C619.17 312.824 619.004 313.625 618.672 314.367C618.34 315.109 617.891 315.764 617.324 316.33C616.777 316.877 616.133 317.316 615.391 317.648C614.648 317.961 613.857 318.117 613.018 318.117C612.158 318.117 611.357 317.961 610.615 317.648C609.873 317.316 609.219 316.877 608.652 316.33C608.105 315.764 607.666 315.109 607.334 314.367C607.021 313.625 606.865 312.824 606.865 311.965C606.865 311.125 607.021 310.324 607.334 309.562C607.666 308.801 608.105 308.146 608.652 307.6C609.219 307.033 609.873 306.584 610.615 306.252C611.357 305.92 612.158 305.754 613.018 305.754C613.857 305.754 614.648 305.92 615.391 306.252C616.133 306.584 616.777 307.033 617.324 307.6C617.891 308.146 618.34 308.801 618.672 309.562C619.004 310.324 619.17 311.125 619.17 311.965Z" fill="black"/>
</svg>
