<svg width="412" height="168" viewBox="0 0 412 168" fill="none" xmlns="http://www.w3.org/2000/svg">
<path d="M0 15C0 6.71573 6.71573 0 15 0H397C405.284 0 412 6.71573 412 15V153C412 161.284 405.284 168 397 168H15C6.71573 168 0 161.284 0 153V15Z" fill="#D9D9D9"/>
<path d="M83.7773 87.7637C83.7773 91.0742 83.7334 94.3555 83.6455 97.6074C83.5869 100.83 83.4844 104.082 83.3379 107.363L58.0254 106.924C58.9043 101.738 59.666 96.5674 60.3105 91.4111C60.9551 86.2256 61.2773 80.9961 61.2773 75.7227C61.2773 75.3418 61.2627 74.7266 61.2334 73.877C61.2041 73.0273 61.1455 72.0752 61.0576 71.0205C60.9697 69.9365 60.8379 68.8379 60.6621 67.7246C60.5156 66.582 60.2959 65.542 60.0029 64.6045C59.7393 63.667 59.4023 62.9053 58.9922 62.3193C58.6113 61.7041 58.1426 61.3965 57.5859 61.3965C56.5898 61.3965 55.7402 61.6895 55.0371 62.2754C54.3633 62.8613 53.792 63.623 53.3232 64.5605C52.8838 65.4688 52.5322 66.4941 52.2686 67.6367C52.0049 68.7793 51.7998 69.9219 51.6533 71.0645C51.5361 72.207 51.4482 73.291 51.3896 74.3164C51.3604 75.3125 51.3457 76.1328 51.3457 76.7773C51.1992 81.9629 51.082 87.1191 50.9941 92.2461C50.9062 97.3438 50.7891 102.5 50.6426 107.715L28.2305 108.682C28.8164 98.3398 29.373 88.0566 29.9004 77.832C30.457 67.6074 30.8965 57.3242 31.2188 46.9824L51.9609 45.9277L51.7852 52.959C52.6055 51.9629 53.4844 51.0254 54.4219 50.1465C55.3887 49.2676 56.4141 48.5205 57.498 47.9053C58.582 47.2607 59.7246 46.7627 60.9258 46.4111C62.1562 46.0303 63.4453 45.8398 64.793 45.8398C67.2832 45.8398 69.4658 46.25 71.3408 47.0703C73.2158 47.8906 74.8271 49.0039 76.1748 50.4102C77.5225 51.8164 78.6504 53.4863 79.5586 55.4199C80.4668 57.3242 81.1992 59.3604 81.7559 61.5283C82.3125 63.6963 82.7373 65.9668 83.0303 68.3398C83.3232 70.6836 83.5137 72.998 83.6016 75.2832C83.7188 77.5684 83.7773 79.7803 83.7773 81.9189C83.7773 84.0576 83.7773 86.0059 83.7773 87.7637Z" fill="black"/>
<path d="M142.269 76.3379C142.269 79.0039 141.961 81.582 141.346 84.0723C140.73 86.5332 139.837 88.8477 138.665 91.0156C137.522 93.1836 136.116 95.1758 134.446 96.9922C132.806 98.7793 130.945 100.317 128.865 101.606C126.814 102.896 124.573 103.906 122.142 104.639C119.71 105.342 117.132 105.693 114.407 105.693C111.771 105.693 109.251 105.356 106.849 104.683C104.476 104.009 102.249 103.071 100.169 101.87C98.0889 100.64 96.1992 99.1748 94.5 97.4756C92.8301 95.7471 91.3945 93.8428 90.1934 91.7627C89.0215 89.6533 88.0986 87.3975 87.4248 84.9951C86.7803 82.5928 86.458 80.0879 86.458 77.4805C86.458 74.9316 86.7656 72.4414 87.3809 70.0098C87.9961 67.5488 88.875 65.2344 90.0176 63.0664C91.1895 60.8984 92.5957 58.9062 94.2363 57.0898C95.877 55.2734 97.708 53.7061 99.7295 52.3877C101.78 51.0693 103.992 50.0439 106.365 49.3115C108.738 48.5791 111.243 48.2129 113.88 48.2129C118.128 48.2129 121.995 48.8721 125.481 50.1904C128.997 51.5088 131.985 53.3984 134.446 55.8594C136.937 58.291 138.855 61.25 140.203 64.7363C141.58 68.1934 142.269 72.0605 142.269 76.3379ZM122.757 77.4805C122.757 76.2207 122.566 75.0049 122.186 73.833C121.834 72.6318 121.307 71.5771 120.604 70.6689C119.9 69.7314 119.021 68.9844 117.967 68.4277C116.941 67.8418 115.755 67.5488 114.407 67.5488C113.03 67.5488 111.8 67.7979 110.716 68.2959C109.632 68.7939 108.694 69.4824 107.903 70.3613C107.142 71.2109 106.556 72.2217 106.146 73.3936C105.735 74.5361 105.53 75.752 105.53 77.041C105.53 78.2715 105.706 79.502 106.058 80.7324C106.409 81.9629 106.937 83.0762 107.64 84.0723C108.343 85.0684 109.207 85.874 110.232 86.4893C111.287 87.1045 112.503 87.4121 113.88 87.4121C115.257 87.4121 116.487 87.1484 117.571 86.6211C118.685 86.0645 119.622 85.332 120.384 84.4238C121.146 83.4863 121.731 82.417 122.142 81.2158C122.552 80.0146 122.757 78.7695 122.757 77.4805Z" fill="black"/>
<path d="M196.849 67.6367C196.849 69.9219 196.644 72.002 196.233 73.877C195.853 75.7227 195.237 77.4219 194.388 78.9746C193.538 80.5273 192.439 81.9629 191.092 83.2812C189.744 84.5996 188.118 85.8594 186.214 87.0605L196.673 105.693L176.897 109.561L170.13 90.8398L164.681 91.0156L163.89 109.297H144.993C145.14 102.617 145.271 95.9668 145.389 89.3457C145.535 82.7246 145.696 76.0742 145.872 69.3945C145.931 66.0254 145.989 62.6855 146.048 59.375C146.106 56.0645 146.224 52.7246 146.399 49.3555C148.45 48.5938 150.472 47.9639 152.464 47.4658C154.456 46.9678 156.448 46.5869 158.44 46.3232C160.462 46.0303 162.498 45.8398 164.549 45.752C166.629 45.6348 168.753 45.5762 170.921 45.5762C174.261 45.5762 177.483 46.0449 180.589 46.9824C183.724 47.8906 186.492 49.2676 188.895 51.1133C191.297 52.959 193.216 55.2588 194.651 58.0127C196.116 60.7666 196.849 63.9746 196.849 67.6367ZM177.161 69.043C177.161 67.8125 176.985 66.6846 176.634 65.6592C176.312 64.6338 175.813 63.7549 175.14 63.0225C174.495 62.2607 173.675 61.6748 172.679 61.2646C171.712 60.8252 170.569 60.6055 169.251 60.6055C168.665 60.6055 168.094 60.6494 167.537 60.7373C166.98 60.7959 166.438 60.8984 165.911 61.0449L165.208 77.3926H166.263C167.522 77.3926 168.797 77.2314 170.086 76.9092C171.404 76.5869 172.576 76.0889 173.602 75.415C174.656 74.7412 175.506 73.877 176.15 72.8223C176.824 71.7676 177.161 70.5078 177.161 69.043Z" fill="black"/>
<path d="M276.741 80.2051C276.741 84.3945 276.609 88.5693 276.346 92.7295C276.082 96.8896 275.774 101.064 275.423 105.254L252.835 106.309C253.509 101.211 254.109 96.1133 254.637 91.0156C255.193 85.8887 255.472 80.7617 255.472 75.6348C255.472 75.3125 255.457 74.7559 255.428 73.9648C255.398 73.1445 255.34 72.2217 255.252 71.1963C255.193 70.1709 255.091 69.1162 254.944 68.0322C254.827 66.9189 254.651 65.9082 254.417 65C254.212 64.0625 253.948 63.3008 253.626 62.7148C253.304 62.1289 252.923 61.8359 252.483 61.8359C251.458 61.8359 250.652 62.2314 250.066 63.0225C249.48 63.7842 249.041 64.707 248.748 65.791C248.484 66.875 248.323 67.9883 248.265 69.1309C248.206 70.2441 248.177 71.1523 248.177 71.8555C248.177 73.0859 248.206 74.3164 248.265 75.5469C248.323 76.7773 248.353 78.0371 248.353 79.3262C248.353 83.8672 248.235 88.3936 248.001 92.9053C247.796 97.417 247.532 101.943 247.21 106.484L226.38 107.275C227.054 102.178 227.64 97.0947 228.138 92.0264C228.665 86.9287 228.929 81.8164 228.929 76.6895C228.929 76.3672 228.914 75.7812 228.885 74.9316C228.855 74.082 228.797 73.1299 228.709 72.0752C228.65 71.0205 228.548 69.9219 228.401 68.7793C228.255 67.6367 228.064 66.5967 227.83 65.6592C227.625 64.6924 227.361 63.9014 227.039 63.2861C226.717 62.6709 226.321 62.3633 225.853 62.3633C225.12 62.3633 224.505 62.6562 224.007 63.2422C223.509 63.7988 223.099 64.5312 222.776 65.4395C222.483 66.3477 222.249 67.3584 222.073 68.4717C221.927 69.5557 221.81 70.625 221.722 71.6797C221.663 72.7344 221.619 73.7158 221.59 74.624C221.59 75.5029 221.575 76.1621 221.546 76.6016L220.579 108.682H198.431C198.899 103.73 199.368 98.7646 199.837 93.7842C200.335 88.8037 200.76 83.8379 201.111 78.8867C201.492 73.9062 201.8 68.9258 202.034 63.9453C202.269 58.9648 202.386 53.9844 202.386 49.0039L223.304 48.125L223.216 53.2227C223.86 52.4023 224.593 51.582 225.413 50.7617C226.233 49.9121 227.098 49.165 228.006 48.5205C228.943 47.8467 229.925 47.3047 230.95 46.8945C232.005 46.4844 233.089 46.2793 234.202 46.2793C235.638 46.2793 236.927 46.3965 238.069 46.6309C239.212 46.8359 240.237 47.2021 241.146 47.7295C242.083 48.2568 242.903 48.9893 243.606 49.9268C244.31 50.835 244.925 51.9922 245.452 53.3984C246.39 52.373 247.327 51.4209 248.265 50.542C249.231 49.6631 250.242 48.916 251.297 48.3008C252.352 47.6562 253.494 47.1582 254.725 46.8066C255.955 46.4551 257.317 46.2793 258.812 46.2793C261.653 46.2793 264.07 46.8359 266.062 47.9492C268.055 49.0332 269.71 50.4834 271.028 52.2998C272.376 54.1162 273.416 56.1963 274.148 58.54C274.91 60.8838 275.481 63.3154 275.862 65.835C276.243 68.3545 276.478 70.8594 276.565 73.3496C276.683 75.8398 276.741 78.125 276.741 80.2051Z" fill="black"/>
<path d="M336.199 106.221L314.402 109.033L311.766 99.1016H301.746L299.549 109.033L277.137 106.836L294.627 48.3008L319.061 47.0703L336.199 106.221ZM310.184 85.6543L306.844 70.3613L303.592 85.6543H310.184Z" fill="black"/>
<path d="M375.662 86.709L373.816 106.221L336.814 109.121L338.221 46.3672H361.072L357.82 86.709H375.662Z" fill="black"/>
</svg>
