<svg width="256" height="256" viewBox="0 0 256 256" fill="none" xmlns="http://www.w3.org/2000/svg">
<path d="M256 128C256 198.692 198.692 256 128 256C57.3075 256 0 198.692 0 128C0 57.3075 57.3075 0 128 0C198.692 0 256 57.3075 256 128Z" fill="#A6A6A6"/>
<path d="M174.961 103.008C174.961 108.216 174.017 113.197 172.129 117.949C170.241 122.637 167.734 127.064 164.609 131.23C161.549 135.332 158.034 139.141 154.062 142.656C150.156 146.107 146.185 149.232 142.148 152.031H173.008L170.664 192.656L79.2578 189.531V153.984C82.7083 152.812 86.3216 151.413 90.0977 149.785C93.9388 148.092 97.6823 146.172 101.328 144.023C105.039 141.875 108.522 139.466 111.777 136.797C115.098 134.128 117.995 131.23 120.469 128.105C123.008 124.915 124.993 121.465 126.426 117.754C127.923 114.043 128.672 110.039 128.672 105.742C128.672 103.268 128.216 101.087 127.305 99.1992C126.458 97.3112 125.254 95.7487 123.691 94.5117C122.129 93.2096 120.306 92.2656 118.223 91.6797C116.204 91.0286 114.023 90.7031 111.68 90.7031C109.727 90.7031 107.741 90.931 105.723 91.3867C103.704 91.7773 101.719 92.3633 99.7656 93.1445C97.8125 93.9258 95.957 94.9023 94.1992 96.0742C92.5065 97.181 90.9766 98.4505 89.6094 99.8828L81.0156 61.6016C83.4245 59.1927 86.1914 57.1745 89.3164 55.5469C92.4414 53.9193 95.7292 52.6172 99.1797 51.6406C102.63 50.599 106.146 49.8503 109.727 49.3945C113.307 48.9388 116.823 48.7109 120.273 48.7109C127.956 48.7109 135.117 50.1107 141.758 52.9102C148.398 55.6445 154.16 59.4531 159.043 64.3359C163.991 69.1536 167.865 74.8828 170.664 81.5234C173.529 88.1641 174.961 95.3255 174.961 103.008Z" fill="#EBEBEB"/>
</svg>
