<svg width="256" height="256" viewBox="0 0 256 256" fill="none" xmlns="http://www.w3.org/2000/svg">
<path d="M256 128C256 198.692 198.692 256 128 256C57.3075 256 0 198.692 0 128C0 57.3075 57.3075 0 128 0C198.692 0 256 57.3075 256 128Z" fill="#FF8957"/>
<path d="M176.816 145.781C176.816 154.44 175.417 161.96 172.617 168.34C169.883 174.655 166.042 179.928 161.094 184.16C156.146 188.327 150.221 191.452 143.32 193.535C136.484 195.553 128.965 196.562 120.762 196.562C117.051 196.562 113.242 196.204 109.336 195.488C105.43 194.772 101.556 193.796 97.7148 192.559C93.8737 191.322 90.1302 189.857 86.4844 188.164C82.9036 186.471 79.5508 184.648 76.4258 182.695L80.1367 143.438C82.6107 145.13 85.3776 146.758 88.4375 148.32C91.4974 149.818 94.6549 151.185 97.9102 152.422C101.23 153.594 104.551 154.538 107.871 155.254C111.257 155.97 114.512 156.328 117.637 156.328C119.46 156.328 121.315 156.198 123.203 155.938C125.156 155.612 126.914 155.059 128.477 154.277C130.039 153.496 131.309 152.389 132.285 150.957C133.327 149.525 133.848 147.669 133.848 145.391C133.848 143.958 133.197 142.624 131.895 141.387C130.592 140.15 129.03 139.108 127.207 138.262C125.384 137.35 123.496 136.667 121.543 136.211C119.59 135.69 117.962 135.43 116.66 135.43C115.749 135.43 114.642 135.495 113.34 135.625C112.103 135.69 110.833 135.82 109.531 136.016C108.229 136.211 106.96 136.504 105.723 136.895C104.551 137.22 103.639 137.643 102.988 138.164L103.574 110.234C104.681 110.365 105.723 110.462 106.699 110.527C107.676 110.592 108.717 110.625 109.824 110.625C112.103 110.625 114.577 110.43 117.246 110.039C119.915 109.583 122.389 108.835 124.668 107.793C126.947 106.686 128.835 105.189 130.332 103.301C131.895 101.413 132.676 98.9714 132.676 95.9766C132.676 93.8281 132.09 92.1029 130.918 90.8008C129.746 89.4336 128.281 88.3919 126.523 87.6758C124.831 86.9596 122.975 86.4714 120.957 86.2109C118.939 85.9505 117.116 85.8203 115.488 85.8203C110.215 85.8203 105.007 86.7318 99.8633 88.5547C94.7852 90.3776 90.293 93.0469 86.3867 96.5625L78.1836 61.0156C84.1732 56.1328 90.9766 52.4219 98.5938 49.8828C106.276 47.2786 113.991 45.9766 121.738 45.9766C128.835 45.9766 135.605 47.0182 142.051 49.1016C148.561 51.1198 154.29 54.1471 159.238 58.1836C164.186 62.1549 168.125 67.0703 171.055 72.9297C173.984 78.7891 175.449 85.5599 175.449 93.2422C175.449 95.4557 175.124 97.7018 174.473 99.9805C173.822 102.259 172.943 104.473 171.836 106.621C170.729 108.77 169.427 110.788 167.93 112.676C166.432 114.499 164.837 116.094 163.145 117.461C165.879 118.698 168.125 120.358 169.883 122.441C171.641 124.525 173.04 126.836 174.082 129.375C175.124 131.914 175.84 134.616 176.23 137.48C176.621 140.28 176.816 143.047 176.816 145.781Z" fill="#FFC7AF"/>
</svg>
