<svg width="703" height="222" viewBox="0 0 703 222" fill="none" xmlns="http://www.w3.org/2000/svg">
<path d="M74.625 31.75C74.625 35 74.3333 37.9583 73.75 40.625C73.2083 43.25 72.3333 45.6667 71.125 47.875C69.9167 50.0833 68.3542 52.125 66.4375 54C64.5208 55.875 62.2083 57.6667 59.5 59.375L74.375 85.875L46.25 91.375L36.625 64.75L28.875 65L27.75 91H0.875C1.08333 81.5 1.27083 72.0417 1.4375 62.625C1.64583 53.2083 1.875 43.75 2.125 34.25C2.20833 29.4583 2.29167 24.7083 2.375 20C2.45833 15.2917 2.625 10.5417 2.875 5.75C5.79167 4.66667 8.66667 3.77083 11.5 3.0625C14.3333 2.35417 17.1667 1.8125 20 1.4375C22.875 1.02083 25.7708 0.75 28.6875 0.625C31.6458 0.458333 34.6667 0.375 37.75 0.375C42.5 0.375 47.0833 1.04167 51.5 2.375C55.9583 3.66667 59.8958 5.625 63.3125 8.25C66.7292 10.875 69.4583 14.1458 71.5 18.0625C73.5833 21.9792 74.625 26.5417 74.625 31.75ZM46.625 33.75C46.625 32 46.375 30.3958 45.875 28.9375C45.4167 27.4792 44.7083 26.2292 43.75 25.1875C42.8333 24.1042 41.6667 23.2708 40.25 22.6875C38.875 22.0625 37.25 21.75 35.375 21.75C34.5417 21.75 33.7292 21.8125 32.9375 21.9375C32.1458 22.0208 31.375 22.1667 30.625 22.375L29.625 45.625H31.125C32.9167 45.625 34.7292 45.3958 36.5625 44.9375C38.4375 44.4792 40.1042 43.7708 41.5625 42.8125C43.0625 41.8542 44.2708 40.625 45.1875 39.125C46.1458 37.625 46.625 35.8333 46.625 33.75ZM156.25 44.125C156.25 47.9167 155.812 51.5833 154.938 55.125C154.062 58.625 152.792 61.9167 151.125 65C149.5 68.0833 147.5 70.9167 145.125 73.5C142.792 76.0417 140.146 78.2292 137.188 80.0625C134.271 81.8958 131.083 83.3333 127.625 84.375C124.167 85.375 120.5 85.875 116.625 85.875C112.875 85.875 109.292 85.3958 105.875 84.4375C102.5 83.4792 99.3333 82.1458 96.375 80.4375C93.4167 78.6875 90.7292 76.6042 88.3125 74.1875C85.9375 71.7292 83.8958 69.0208 82.1875 66.0625C80.5208 63.0625 79.2083 59.8542 78.25 56.4375C77.3333 53.0208 76.875 49.4583 76.875 45.75C76.875 42.125 77.3125 38.5833 78.1875 35.125C79.0625 31.625 80.3125 28.3333 81.9375 25.25C83.6042 22.1667 85.6042 19.3333 87.9375 16.75C90.2708 14.1667 92.875 11.9375 95.75 10.0625C98.6667 8.1875 101.812 6.72917 105.188 5.6875C108.562 4.64583 112.125 4.125 115.875 4.125C121.917 4.125 127.417 5.0625 132.375 6.9375C137.375 8.8125 141.625 11.5 145.125 15C148.667 18.4583 151.396 22.6667 153.312 27.625C155.271 32.5417 156.25 38.0417 156.25 44.125ZM128.5 45.75C128.5 43.9583 128.229 42.2292 127.688 40.5625C127.188 38.8542 126.438 37.3542 125.438 36.0625C124.438 34.7292 123.188 33.6667 121.688 32.875C120.229 32.0417 118.542 31.625 116.625 31.625C114.667 31.625 112.917 31.9792 111.375 32.6875C109.833 33.3958 108.5 34.375 107.375 35.625C106.292 36.8333 105.458 38.2708 104.875 39.9375C104.292 41.5625 104 43.2917 104 45.125C104 46.875 104.25 48.625 104.75 50.375C105.25 52.125 106 53.7083 107 55.125C108 56.5417 109.229 57.6875 110.688 58.5625C112.188 59.4375 113.917 59.875 115.875 59.875C117.833 59.875 119.583 59.5 121.125 58.75C122.708 57.9583 124.042 56.9167 125.125 55.625C126.208 54.2917 127.042 52.7708 127.625 51.0625C128.208 49.3542 128.5 47.5833 128.5 45.75ZM220.25 6.625L218 33C216.792 32.6667 215.604 32.4375 214.438 32.3125C213.271 32.1875 212.083 32.125 210.875 32.125C207.917 32.125 205.083 32.5 202.375 33.25C199.708 34 197.333 35.1458 195.25 36.6875C193.208 38.2292 191.562 40.1875 190.312 42.5625C189.104 44.8958 188.5 47.6667 188.5 50.875C188.5 53.2083 188.833 55.25 189.5 57C190.208 58.7083 191.188 60.1458 192.438 61.3125C193.729 62.4375 195.271 63.2917 197.062 63.875C198.896 64.4583 200.917 64.75 203.125 64.75C204.667 64.75 206.25 64.6042 207.875 64.3125C209.5 63.9792 211.125 63.5417 212.75 63C214.375 62.4583 215.938 61.8333 217.438 61.125C218.938 60.4167 220.333 59.6667 221.625 58.875L220.625 88.25C219 89.0833 217.25 89.8333 215.375 90.5C213.5 91.125 211.562 91.6667 209.562 92.125C207.604 92.625 205.625 93 203.625 93.25C201.667 93.5 199.792 93.625 198 93.625C192.083 93.625 186.688 92.5208 181.812 90.3125C176.979 88.1042 172.812 85.1042 169.312 81.3125C165.854 77.4792 163.167 73.0417 161.25 68C159.333 62.9583 158.375 57.5833 158.375 51.875C158.375 45.0417 159.333 38.6667 161.25 32.75C163.208 26.8333 166.062 21.7083 169.812 17.375C173.604 13 178.271 9.58333 183.812 7.125C189.396 4.625 195.792 3.375 203 3.375C205.875 3.375 208.792 3.60417 211.75 4.0625C214.708 4.52083 217.542 5.375 220.25 6.625ZM303.062 11.25L275.438 44.125L300.812 87.125L271.812 92.25L252.812 66.5L251.812 91L225.812 92L227.812 2.5L256.938 4.125L254.688 29.875L272.812 3.75L303.062 11.25ZM401.188 34.375C401.188 38.4167 400.583 42 399.375 45.125C398.167 48.25 396.5 51 394.375 53.375C392.292 55.7083 389.833 57.6875 387 59.3125C384.167 60.8958 381.125 62.2083 377.875 63.25C374.667 64.25 371.333 65 367.875 65.5C364.417 65.9583 361.021 66.2083 357.688 66.25V92.875H328.562C328.562 88.125 328.562 83.5 328.562 79C328.604 74.5 328.625 70.0417 328.625 65.625C328.667 61.1667 328.688 56.6875 328.688 52.1875C328.729 47.6875 328.771 43.0417 328.812 38.25C328.896 33.1667 328.917 28.0833 328.875 23C328.833 17.9167 328.938 12.7917 329.188 7.625C334.521 6.04167 339.854 4.85417 345.188 4.0625C350.521 3.27083 356.021 2.875 361.688 2.875C364.896 2.875 368.104 3.14583 371.312 3.6875C374.521 4.1875 377.583 5 380.5 6.125C383.458 7.25 386.188 8.66667 388.688 10.375C391.229 12.0417 393.417 14.0417 395.25 16.375C397.083 18.7083 398.521 21.375 399.562 24.375C400.646 27.375 401.188 30.7083 401.188 34.375ZM373.438 36.5C373.438 33.7917 372.604 31.6875 370.938 30.1875C369.312 28.6458 367.188 27.875 364.562 27.875C363.688 27.875 362.771 27.9583 361.812 28.125C360.896 28.25 360.021 28.4167 359.188 28.625L358.438 46.875C359.021 46.9583 359.583 47 360.125 47C360.667 47 361.229 47 361.812 47C363.312 47 364.75 46.75 366.125 46.25C367.542 45.75 368.792 45.0417 369.875 44.125C370.958 43.1667 371.812 42.0625 372.438 40.8125C373.104 39.5208 373.438 38.0833 373.438 36.5ZM477.812 86.625L446.812 90.625L443.062 76.5H428.812L425.688 90.625L393.812 87.5L418.688 4.25L453.438 2.5L477.812 86.625ZM440.812 57.375L436.062 35.625L431.438 57.375H440.812ZM551.938 34.375C551.938 38.4167 551.333 42 550.125 45.125C548.917 48.25 547.25 51 545.125 53.375C543.042 55.7083 540.583 57.6875 537.75 59.3125C534.917 60.8958 531.875 62.2083 528.625 63.25C525.417 64.25 522.083 65 518.625 65.5C515.167 65.9583 511.771 66.2083 508.438 66.25V92.875H479.312C479.312 88.125 479.312 83.5 479.312 79C479.354 74.5 479.375 70.0417 479.375 65.625C479.417 61.1667 479.438 56.6875 479.438 52.1875C479.479 47.6875 479.521 43.0417 479.562 38.25C479.646 33.1667 479.667 28.0833 479.625 23C479.583 17.9167 479.688 12.7917 479.938 7.625C485.271 6.04167 490.604 4.85417 495.938 4.0625C501.271 3.27083 506.771 2.875 512.438 2.875C515.646 2.875 518.854 3.14583 522.062 3.6875C525.271 4.1875 528.333 5 531.25 6.125C534.208 7.25 536.938 8.66667 539.438 10.375C541.979 12.0417 544.167 14.0417 546 16.375C547.833 18.7083 549.271 21.375 550.312 24.375C551.396 27.375 551.938 30.7083 551.938 34.375ZM524.188 36.5C524.188 33.7917 523.354 31.6875 521.688 30.1875C520.062 28.6458 517.938 27.875 515.312 27.875C514.438 27.875 513.521 27.9583 512.562 28.125C511.646 28.25 510.771 28.4167 509.938 28.625L509.188 46.875C509.771 46.9583 510.333 47 510.875 47C511.417 47 511.979 47 512.562 47C514.062 47 515.5 46.75 516.875 46.25C518.292 45.75 519.542 45.0417 520.625 44.125C521.708 43.1667 522.562 42.0625 523.188 40.8125C523.854 39.5208 524.188 38.0833 524.188 36.5ZM625.25 41.5C625.25 45.125 625 48.75 624.5 52.375C617.375 52.8333 610.292 53.5833 603.25 54.625C596.208 55.625 589.167 56.625 582.125 57.625C583.208 60.625 584.896 63.0208 587.188 64.8125C589.521 66.6042 592.292 67.5 595.5 67.5C597.167 67.5 598.979 67.1875 600.938 66.5625C602.938 65.9375 604.917 65.1667 606.875 64.25C608.833 63.2917 610.708 62.2708 612.5 61.1875C614.292 60.1042 615.833 59.125 617.125 58.25L614.125 86.625C612.5 87.875 610.729 88.9375 608.812 89.8125C606.938 90.6875 604.979 91.3958 602.938 91.9375C600.896 92.4792 598.833 92.875 596.75 93.125C594.667 93.375 592.625 93.5 590.625 93.5C586.5 93.5 582.729 92.9375 579.312 91.8125C575.896 90.6875 572.792 89.125 570 87.125C567.25 85.0833 564.833 82.6875 562.75 79.9375C560.667 77.1875 558.938 74.1875 557.562 70.9375C556.188 67.6875 555.146 64.25 554.438 60.625C553.729 57 553.375 53.3333 553.375 49.625C553.375 45.75 553.729 41.875 554.438 38C555.146 34.125 556.208 30.3958 557.625 26.8125C559.083 23.2292 560.896 19.9167 563.062 16.875C565.271 13.7917 567.833 11.1042 570.75 8.8125C573.667 6.52083 576.958 4.72917 580.625 3.4375C584.333 2.14583 588.417 1.5 592.875 1.5C596.583 1.5 599.958 2.02083 603 3.0625C606.083 4.0625 608.812 5.47917 611.188 7.3125C613.604 9.10417 615.688 11.25 617.438 13.75C619.229 16.25 620.688 19 621.812 22C622.979 24.9583 623.833 28.1042 624.375 31.4375C624.958 34.7292 625.25 38.0833 625.25 41.5ZM600.25 38.25C600.25 37.0833 600.125 35.8958 599.875 34.6875C599.625 33.4375 599.208 32.3125 598.625 31.3125C598.083 30.3125 597.354 29.5 596.438 28.875C595.521 28.2083 594.375 27.875 593 27.875C591.333 27.875 589.854 28.3333 588.562 29.25C587.312 30.125 586.229 31.25 585.312 32.625C584.396 33.9583 583.646 35.4167 583.062 37C582.479 38.5833 582.042 40.0417 581.75 41.375L600.25 39.625V38.25ZM702.625 31.75C702.625 35 702.333 37.9583 701.75 40.625C701.208 43.25 700.333 45.6667 699.125 47.875C697.917 50.0833 696.354 52.125 694.438 54C692.521 55.875 690.208 57.6667 687.5 59.375L702.375 85.875L674.25 91.375L664.625 64.75L656.875 65L655.75 91H628.875C629.083 81.5 629.271 72.0417 629.438 62.625C629.646 53.2083 629.875 43.75 630.125 34.25C630.208 29.4583 630.292 24.7083 630.375 20C630.458 15.2917 630.625 10.5417 630.875 5.75C633.792 4.66667 636.667 3.77083 639.5 3.0625C642.333 2.35417 645.167 1.8125 648 1.4375C650.875 1.02083 653.771 0.75 656.688 0.625C659.646 0.458333 662.667 0.375 665.75 0.375C670.5 0.375 675.083 1.04167 679.5 2.375C683.958 3.66667 687.896 5.625 691.312 8.25C694.729 10.875 697.458 14.1458 699.5 18.0625C701.583 21.9792 702.625 26.5417 702.625 31.75ZM674.625 33.75C674.625 32 674.375 30.3958 673.875 28.9375C673.417 27.4792 672.708 26.2292 671.75 25.1875C670.833 24.1042 669.667 23.2708 668.25 22.6875C666.875 22.0625 665.25 21.75 663.375 21.75C662.542 21.75 661.729 21.8125 660.938 21.9375C660.146 22.0208 659.375 22.1667 658.625 22.375L657.625 45.625H659.125C660.917 45.625 662.729 45.3958 664.562 44.9375C666.438 44.4792 668.104 43.7708 669.562 42.8125C671.062 41.8542 672.271 40.625 673.188 39.125C674.146 37.625 674.625 35.8333 674.625 33.75ZM151 188C151 193.708 150 198.646 148 202.812C146.042 206.938 143.333 210.354 139.875 213.062C136.458 215.729 132.438 217.708 127.812 219C123.229 220.25 118.292 220.875 113 220.875C110.958 220.875 108.708 220.604 106.25 220.062C103.833 219.521 101.375 218.854 98.875 218.062C96.375 217.229 93.9583 216.354 91.625 215.438C89.3333 214.479 87.2917 213.583 85.5 212.75L88.25 188.25C91.7917 190.375 95.7083 192 100 193.125C104.333 194.208 108.583 194.75 112.75 194.75C113.542 194.75 114.5 194.729 115.625 194.688C116.75 194.604 117.812 194.417 118.812 194.125C119.854 193.792 120.729 193.312 121.438 192.688C122.146 192.062 122.5 191.167 122.5 190C122.5 189.208 122.25 188.542 121.75 188C121.25 187.417 120.604 186.958 119.812 186.625C119.021 186.25 118.125 185.979 117.125 185.812C116.125 185.604 115.146 185.458 114.188 185.375C113.229 185.292 112.333 185.25 111.5 185.25C110.667 185.25 110 185.25 109.5 185.25C105.917 185.25 102.646 184.688 99.6875 183.562C96.7708 182.438 94.25 180.854 92.125 178.812C90.0417 176.729 88.4167 174.229 87.25 171.312C86.0833 168.354 85.5 165.083 85.5 161.5C85.5 156.583 86.4792 152.188 88.4375 148.312C90.4375 144.396 93.0833 141.083 96.375 138.375C99.7083 135.625 103.521 133.521 107.812 132.062C112.104 130.604 116.542 129.875 121.125 129.875C123.167 129.875 125.271 129.958 127.438 130.125C129.604 130.25 131.75 130.5 133.875 130.875C136.042 131.25 138.146 131.729 140.188 132.312C142.229 132.896 144.167 133.625 146 134.5L143.625 159.875C140.792 158.917 137.812 158.125 134.688 157.5C131.604 156.833 128.583 156.5 125.625 156.5C125.083 156.5 124.375 156.521 123.5 156.562C122.667 156.562 121.771 156.625 120.812 156.75C119.896 156.833 118.958 156.979 118 157.188C117.042 157.396 116.188 157.688 115.438 158.062C114.688 158.396 114.083 158.854 113.625 159.438C113.167 160.021 112.958 160.708 113 161.5C113.042 162.417 113.375 163.125 114 163.625C114.667 164.125 115.5 164.5 116.5 164.75C117.542 164.958 118.667 165.062 119.875 165.062C121.125 165.062 122.354 165.042 123.562 165C124.771 164.917 125.896 164.854 126.938 164.812C127.979 164.729 128.833 164.708 129.5 164.75C132.833 164.958 135.833 165.667 138.5 166.875C141.167 168.083 143.417 169.688 145.25 171.688C147.125 173.688 148.542 176.083 149.5 178.875C150.5 181.625 151 184.667 151 188ZM214.688 134.625L212.438 161C211.229 160.667 210.042 160.438 208.875 160.312C207.708 160.188 206.521 160.125 205.312 160.125C202.354 160.125 199.521 160.5 196.812 161.25C194.146 162 191.771 163.146 189.688 164.688C187.646 166.229 186 168.188 184.75 170.562C183.542 172.896 182.938 175.667 182.938 178.875C182.938 181.208 183.271 183.25 183.938 185C184.646 186.708 185.625 188.146 186.875 189.312C188.167 190.438 189.708 191.292 191.5 191.875C193.333 192.458 195.354 192.75 197.562 192.75C199.104 192.75 200.688 192.604 202.312 192.312C203.938 191.979 205.562 191.542 207.188 191C208.812 190.458 210.375 189.833 211.875 189.125C213.375 188.417 214.771 187.667 216.062 186.875L215.062 216.25C213.438 217.083 211.688 217.833 209.812 218.5C207.938 219.125 206 219.667 204 220.125C202.042 220.625 200.062 221 198.062 221.25C196.104 221.5 194.229 221.625 192.438 221.625C186.521 221.625 181.125 220.521 176.25 218.312C171.417 216.104 167.25 213.104 163.75 209.312C160.292 205.479 157.604 201.042 155.688 196C153.771 190.958 152.812 185.583 152.812 179.875C152.812 173.042 153.771 166.667 155.688 160.75C157.646 154.833 160.5 149.708 164.25 145.375C168.042 141 172.708 137.583 178.25 135.125C183.833 132.625 190.229 131.375 197.438 131.375C200.312 131.375 203.229 131.604 206.188 132.062C209.146 132.521 211.979 133.375 214.688 134.625ZM253.312 132L248.938 217.125L222.562 218.5L220.062 133.75L253.312 132ZM322.5 188C322.5 193.708 321.5 198.646 319.5 202.812C317.542 206.938 314.833 210.354 311.375 213.062C307.958 215.729 303.938 217.708 299.312 219C294.729 220.25 289.792 220.875 284.5 220.875C282.458 220.875 280.208 220.604 277.75 220.062C275.333 219.521 272.875 218.854 270.375 218.062C267.875 217.229 265.458 216.354 263.125 215.438C260.833 214.479 258.792 213.583 257 212.75L259.75 188.25C263.292 190.375 267.208 192 271.5 193.125C275.833 194.208 280.083 194.75 284.25 194.75C285.042 194.75 286 194.729 287.125 194.688C288.25 194.604 289.312 194.417 290.312 194.125C291.354 193.792 292.229 193.312 292.938 192.688C293.646 192.062 294 191.167 294 190C294 189.208 293.75 188.542 293.25 188C292.75 187.417 292.104 186.958 291.312 186.625C290.521 186.25 289.625 185.979 288.625 185.812C287.625 185.604 286.646 185.458 285.688 185.375C284.729 185.292 283.833 185.25 283 185.25C282.167 185.25 281.5 185.25 281 185.25C277.417 185.25 274.146 184.688 271.188 183.562C268.271 182.438 265.75 180.854 263.625 178.812C261.542 176.729 259.917 174.229 258.75 171.312C257.583 168.354 257 165.083 257 161.5C257 156.583 257.979 152.188 259.938 148.312C261.938 144.396 264.583 141.083 267.875 138.375C271.208 135.625 275.021 133.521 279.312 132.062C283.604 130.604 288.042 129.875 292.625 129.875C294.667 129.875 296.771 129.958 298.938 130.125C301.104 130.25 303.25 130.5 305.375 130.875C307.542 131.25 309.646 131.729 311.688 132.312C313.729 132.896 315.667 133.625 317.5 134.5L315.125 159.875C312.292 158.917 309.312 158.125 306.188 157.5C303.104 156.833 300.083 156.5 297.125 156.5C296.583 156.5 295.875 156.521 295 156.562C294.167 156.562 293.271 156.625 292.312 156.75C291.396 156.833 290.458 156.979 289.5 157.188C288.542 157.396 287.688 157.688 286.938 158.062C286.188 158.396 285.583 158.854 285.125 159.438C284.667 160.021 284.458 160.708 284.5 161.5C284.542 162.417 284.875 163.125 285.5 163.625C286.167 164.125 287 164.5 288 164.75C289.042 164.958 290.167 165.062 291.375 165.062C292.625 165.062 293.854 165.042 295.062 165C296.271 164.917 297.396 164.854 298.438 164.812C299.479 164.729 300.333 164.708 301 164.75C304.333 164.958 307.333 165.667 310 166.875C312.667 168.083 314.917 169.688 316.75 171.688C318.625 173.688 320.042 176.083 321 178.875C322 181.625 322.5 184.667 322.5 188ZM390 188C390 193.708 389 198.646 387 202.812C385.042 206.938 382.333 210.354 378.875 213.062C375.458 215.729 371.438 217.708 366.812 219C362.229 220.25 357.292 220.875 352 220.875C349.958 220.875 347.708 220.604 345.25 220.062C342.833 219.521 340.375 218.854 337.875 218.062C335.375 217.229 332.958 216.354 330.625 215.438C328.333 214.479 326.292 213.583 324.5 212.75L327.25 188.25C330.792 190.375 334.708 192 339 193.125C343.333 194.208 347.583 194.75 351.75 194.75C352.542 194.75 353.5 194.729 354.625 194.688C355.75 194.604 356.812 194.417 357.812 194.125C358.854 193.792 359.729 193.312 360.438 192.688C361.146 192.062 361.5 191.167 361.5 190C361.5 189.208 361.25 188.542 360.75 188C360.25 187.417 359.604 186.958 358.812 186.625C358.021 186.25 357.125 185.979 356.125 185.812C355.125 185.604 354.146 185.458 353.188 185.375C352.229 185.292 351.333 185.25 350.5 185.25C349.667 185.25 349 185.25 348.5 185.25C344.917 185.25 341.646 184.688 338.688 183.562C335.771 182.438 333.25 180.854 331.125 178.812C329.042 176.729 327.417 174.229 326.25 171.312C325.083 168.354 324.5 165.083 324.5 161.5C324.5 156.583 325.479 152.188 327.438 148.312C329.438 144.396 332.083 141.083 335.375 138.375C338.708 135.625 342.521 133.521 346.812 132.062C351.104 130.604 355.542 129.875 360.125 129.875C362.167 129.875 364.271 129.958 366.438 130.125C368.604 130.25 370.75 130.5 372.875 130.875C375.042 131.25 377.146 131.729 379.188 132.312C381.229 132.896 383.167 133.625 385 134.5L382.625 159.875C379.792 158.917 376.812 158.125 373.688 157.5C370.604 156.833 367.583 156.5 364.625 156.5C364.083 156.5 363.375 156.521 362.5 156.562C361.667 156.562 360.771 156.625 359.812 156.75C358.896 156.833 357.958 156.979 357 157.188C356.042 157.396 355.188 157.688 354.438 158.062C353.688 158.396 353.083 158.854 352.625 159.438C352.167 160.021 351.958 160.708 352 161.5C352.042 162.417 352.375 163.125 353 163.625C353.667 164.125 354.5 164.5 355.5 164.75C356.542 164.958 357.667 165.062 358.875 165.062C360.125 165.062 361.354 165.042 362.562 165C363.771 164.917 364.896 164.854 365.938 164.812C366.979 164.729 367.833 164.708 368.5 164.75C371.833 164.958 374.833 165.667 377.5 166.875C380.167 168.083 382.417 169.688 384.25 171.688C386.125 173.688 387.542 176.083 388.5 178.875C389.5 181.625 390 184.667 390 188ZM471.312 172.125C471.312 175.917 470.875 179.583 470 183.125C469.125 186.625 467.854 189.917 466.188 193C464.562 196.083 462.562 198.917 460.188 201.5C457.854 204.042 455.208 206.229 452.25 208.062C449.333 209.896 446.146 211.333 442.688 212.375C439.229 213.375 435.562 213.875 431.688 213.875C427.938 213.875 424.354 213.396 420.938 212.438C417.562 211.479 414.396 210.146 411.438 208.438C408.479 206.688 405.792 204.604 403.375 202.188C401 199.729 398.958 197.021 397.25 194.062C395.583 191.062 394.271 187.854 393.312 184.438C392.396 181.021 391.938 177.458 391.938 173.75C391.938 170.125 392.375 166.583 393.25 163.125C394.125 159.625 395.375 156.333 397 153.25C398.667 150.167 400.667 147.333 403 144.75C405.333 142.167 407.938 139.938 410.812 138.062C413.729 136.188 416.875 134.729 420.25 133.688C423.625 132.646 427.188 132.125 430.938 132.125C436.979 132.125 442.479 133.062 447.438 134.938C452.438 136.812 456.688 139.5 460.188 143C463.729 146.458 466.458 150.667 468.375 155.625C470.333 160.542 471.312 166.042 471.312 172.125ZM443.562 173.75C443.562 171.958 443.292 170.229 442.75 168.562C442.25 166.854 441.5 165.354 440.5 164.062C439.5 162.729 438.25 161.667 436.75 160.875C435.292 160.042 433.604 159.625 431.688 159.625C429.729 159.625 427.979 159.979 426.438 160.688C424.896 161.396 423.562 162.375 422.438 163.625C421.354 164.833 420.521 166.271 419.938 167.938C419.354 169.562 419.062 171.292 419.062 173.125C419.062 174.875 419.312 176.625 419.812 178.375C420.312 180.125 421.062 181.708 422.062 183.125C423.062 184.542 424.292 185.688 425.75 186.562C427.25 187.438 428.979 187.875 430.938 187.875C432.896 187.875 434.646 187.5 436.188 186.75C437.771 185.958 439.104 184.917 440.188 183.625C441.271 182.292 442.104 180.771 442.688 179.062C443.271 177.354 443.562 175.583 443.562 173.75ZM548.938 159.75C548.938 163 548.646 165.958 548.062 168.625C547.521 171.25 546.646 173.667 545.438 175.875C544.229 178.083 542.667 180.125 540.75 182C538.833 183.875 536.521 185.667 533.812 187.375L548.688 213.875L520.562 219.375L510.938 192.75L503.188 193L502.062 219H475.188C475.396 209.5 475.583 200.042 475.75 190.625C475.958 181.208 476.188 171.75 476.438 162.25C476.521 157.458 476.604 152.708 476.688 148C476.771 143.292 476.938 138.542 477.188 133.75C480.104 132.667 482.979 131.771 485.812 131.062C488.646 130.354 491.479 129.812 494.312 129.438C497.188 129.021 500.083 128.75 503 128.625C505.958 128.458 508.979 128.375 512.062 128.375C516.812 128.375 521.396 129.042 525.812 130.375C530.271 131.667 534.208 133.625 537.625 136.25C541.042 138.875 543.771 142.146 545.812 146.062C547.896 149.979 548.938 154.542 548.938 159.75ZM520.938 161.75C520.938 160 520.688 158.396 520.188 156.938C519.729 155.479 519.021 154.229 518.062 153.188C517.146 152.104 515.979 151.271 514.562 150.688C513.188 150.062 511.562 149.75 509.688 149.75C508.854 149.75 508.042 149.812 507.25 149.938C506.458 150.021 505.688 150.167 504.938 150.375L503.938 173.625H505.438C507.229 173.625 509.042 173.396 510.875 172.938C512.75 172.479 514.417 171.771 515.875 170.812C517.375 169.854 518.583 168.625 519.5 167.125C520.458 165.625 520.938 163.833 520.938 161.75ZM617.375 188C617.375 193.708 616.375 198.646 614.375 202.812C612.417 206.938 609.708 210.354 606.25 213.062C602.833 215.729 598.812 217.708 594.188 219C589.604 220.25 584.667 220.875 579.375 220.875C577.333 220.875 575.083 220.604 572.625 220.062C570.208 219.521 567.75 218.854 565.25 218.062C562.75 217.229 560.333 216.354 558 215.438C555.708 214.479 553.667 213.583 551.875 212.75L554.625 188.25C558.167 190.375 562.083 192 566.375 193.125C570.708 194.208 574.958 194.75 579.125 194.75C579.917 194.75 580.875 194.729 582 194.688C583.125 194.604 584.188 194.417 585.188 194.125C586.229 193.792 587.104 193.312 587.812 192.688C588.521 192.062 588.875 191.167 588.875 190C588.875 189.208 588.625 188.542 588.125 188C587.625 187.417 586.979 186.958 586.188 186.625C585.396 186.25 584.5 185.979 583.5 185.812C582.5 185.604 581.521 185.458 580.562 185.375C579.604 185.292 578.708 185.25 577.875 185.25C577.042 185.25 576.375 185.25 575.875 185.25C572.292 185.25 569.021 184.688 566.062 183.562C563.146 182.438 560.625 180.854 558.5 178.812C556.417 176.729 554.792 174.229 553.625 171.312C552.458 168.354 551.875 165.083 551.875 161.5C551.875 156.583 552.854 152.188 554.812 148.312C556.812 144.396 559.458 141.083 562.75 138.375C566.083 135.625 569.896 133.521 574.188 132.062C578.479 130.604 582.917 129.875 587.5 129.875C589.542 129.875 591.646 129.958 593.812 130.125C595.979 130.25 598.125 130.5 600.25 130.875C602.417 131.25 604.521 131.729 606.562 132.312C608.604 132.896 610.542 133.625 612.375 134.5L610 159.875C607.167 158.917 604.188 158.125 601.062 157.5C597.979 156.833 594.958 156.5 592 156.5C591.458 156.5 590.75 156.521 589.875 156.562C589.042 156.562 588.146 156.625 587.188 156.75C586.271 156.833 585.333 156.979 584.375 157.188C583.417 157.396 582.562 157.688 581.812 158.062C581.062 158.396 580.458 158.854 580 159.438C579.542 160.021 579.333 160.708 579.375 161.5C579.417 162.417 579.75 163.125 580.375 163.625C581.042 164.125 581.875 164.5 582.875 164.75C583.917 164.958 585.042 165.062 586.25 165.062C587.5 165.062 588.729 165.042 589.938 165C591.146 164.917 592.271 164.854 593.312 164.812C594.354 164.729 595.208 164.708 595.875 164.75C599.208 164.958 602.208 165.667 604.875 166.875C607.542 168.083 609.792 169.688 611.625 171.688C613.5 173.688 614.917 176.083 615.875 178.875C616.875 181.625 617.375 184.667 617.375 188Z" fill="black"/>
</svg>
